<svg xmlns="http://www.w3.org/2000/svg" viewBox="0 0 155.31 58.32"><defs><style>.cls-1{fill:#283337;}.cls-2{fill:#f3c44c;}</style></defs><title>login icon</title><g id="Layer_2" data-name="Layer 2"><g id="Layer_4" data-name="Layer 4"><rect class="cls-1" width="155.31" height="58.32" rx="5.88" ry="5.88"/><path class="cls-2" d="M54.53,31.44c-.21,1.08-1.26,4.72-1.61,5.81H36.64v-1c3.19-.32,3.47-.49,3.47-3.47V18.91c0-3-.35-3.15-3.15-3.43v-1h9.38v1c-2.8.28-3.19.42-3.19,3.43V33.15c0,2.14.28,2.63,2.28,2.66,0,0,2.55,0,2.76,0,1.79,0,2.31-.21,3.12-1.09a11.87,11.87,0,0,0,2.13-3.6Z"/><path class="cls-2" d="M65.21,21.46a7.53,7.53,0,0,1,7.63,7.84c0,5.67-4.2,8.37-7.63,8.37a7.69,7.69,0,0,1-7.77-7.81A8,8,0,0,1,65.21,21.46Zm-.42,1.19c-2.14,0-4.06,2.07-4.06,6.13,0,4.44,2,7.66,4.83,7.66,2.17,0,4-1.57,4-6.37C69.55,26,67.87,22.65,64.79,22.65Z"/><path class="cls-2" d="M80.37,32.14a2.56,2.56,0,0,0-1.16,1.75c0,.63.59,1.33,2.17,1.33,1.29,0,2.77,0,3.92,0,2.24,0,5.11.74,5.11,4.2,0,3.64-4.3,7.07-9,7.07-4,0-6.09-2.31-6.16-4.37a2.77,2.77,0,0,1,.87-2A34.48,34.48,0,0,1,79,37.56a4.51,4.51,0,0,1-2.62-1.89,3.09,3.09,0,0,1-.42-1.5,7.37,7.37,0,0,0,3.22-2.42Zm1.67.35c-3.25,0-6-2-6-5.29,0-4,3.57-5.84,6.31-5.84a7.22,7.22,0,0,1,3.36.87,23.94,23.94,0,0,0,4.69-.52l.21.31a4.37,4.37,0,0,1-1.3,1.86c-.52,0-1.68-.14-2.17-.18a5.39,5.39,0,0,1,1,3.19C88.21,30.7,85.06,32.49,82,32.49Zm.81,5.18c-1.72,0-2.48.21-3.11.73a4,4,0,0,0-1.69,2.87c0,1.93,2,3.36,4.69,3.36,3.33,0,5.22-1.71,5.22-4a2.63,2.63,0,0,0-1.54-2.56A9.51,9.51,0,0,0,82.85,37.67ZM82,22.48c-1.57,0-3,1.43-3,4.2s1.4,4.69,3.33,4.69c1.54-.07,2.9-1.37,2.9-4.2S84,22.48,82,22.48Z"/><path class="cls-2" d="M92.2,37.25v-1c2.2-.21,2.45-.39,2.45-2.77V26.29c0-2.17-.11-2.31-2.21-2.66v-.84a22.56,22.56,0,0,0,5-1.4V33.5c0,2.38.25,2.56,2.52,2.77v1ZM95.84,18a1.89,1.89,0,0,1,0-3.78,1.84,1.84,0,0,1,1.79,1.93A1.86,1.86,0,0,1,95.84,18Z"/><path class="cls-2" d="M111.76,37.25v-1c2-.21,2.24-.46,2.24-2.84V27.66c0-2.45-.87-4.1-3.18-4.1a6.13,6.13,0,0,0-3.89,1.82v8.19c0,2.42.21,2.49,2.28,2.7v1h-7.56v-1c2.31-.25,2.52-.39,2.52-2.7V26.36c0-2.27-.25-2.38-2.14-2.69v-.91a20,20,0,0,0,4.9-1.4v2.76c.7-.49,1.47-1,2.38-1.61a5.37,5.37,0,0,1,2.91-1.05c2.8,0,4.55,2.07,4.55,5.46v6.65c0,2.38.21,2.49,2.24,2.7v1Z"/></g></g></svg>