<svg xmlns="http://www.w3.org/2000/svg" viewBox="0 0 253.2 74"><defs><style>.cls-1{fill:#f3c44c;}.cls-2{fill:#ec1e24;}</style></defs><title>cancel icon</title><g id="Layer_2" data-name="Layer 2"><g id="Layer_10" data-name="Layer 10"><rect class="cls-1" width="253.2" height="74" rx="21.5" ry="21.5"/><path d="M61.33,47.26a61.58,61.58,0,0,1-2.66,7.29,47.92,47.92,0,0,1-8.83,1.16c-11.54,0-17.43-8-17.43-16.13C32.41,29.25,40,22.92,51,22.92A53.32,53.32,0,0,1,59.83,24c.2,2.18.53,5.12.92,7.54l-1.5.33c-1-3.23-2.22-5.35-4.68-6.37a12,12,0,0,0-4.83-.82c-8.11,0-12.31,6.47-12.31,13.86,0,9.31,5.36,15.3,12.7,15.3,4.92,0,7.29-2.27,9.75-7.1Z"/><path d="M80.88,55.56a3.52,3.52,0,0,1-2.27-.92,4.52,4.52,0,0,1-1.15-2.17c-1.94,1.3-4.3,3.09-5.8,3.09a5.92,5.92,0,0,1-5.89-5.94c0-2.36,1.31-3.91,4-4.83,3-1,6.57-2.26,7.63-3.13v-1c0-3.43-1.74-5.41-4.25-5.41a2.82,2.82,0,0,0-2.27,1.11,10.34,10.34,0,0,0-1.3,3.14,1.34,1.34,0,0,1-1.4,1.11A2.32,2.32,0,0,1,66,38.52c0-.68.63-1.26,1.6-1.93a20.18,20.18,0,0,1,7-3.38,6.35,6.35,0,0,1,6.52,6.9v9.32c0,2.22.82,2.9,1.69,2.9a3.79,3.79,0,0,0,1.73-.53L85,53.15ZM77.36,43.35c-1.06.53-3.38,1.54-4.49,2-1.84.83-3,1.74-3,3.53a3.52,3.52,0,0,0,3.48,3.72,6.47,6.47,0,0,0,4-1.74Z"/><path d="M100.87,55V53.63c2.8-.29,3.09-.63,3.09-3.91v-8c0-3.38-1.21-5.65-4.39-5.65a8.42,8.42,0,0,0-5.36,2.52V49.91c0,3.33.29,3.43,3.14,3.72V55H86.92V53.63c3.19-.34,3.48-.53,3.48-3.72V40c0-3.14-.34-3.29-3-3.72V35a27,27,0,0,0,6.76-1.93v3.82c1-.68,2-1.4,3.28-2.22a7.4,7.4,0,0,1,4-1.45c3.86,0,6.28,2.85,6.28,7.53v9.17c0,3.29.28,3.43,3.09,3.72V55Z"/><path d="M132,50.64c-2.12,2.8-5.35,4.92-8.25,4.92-6.13,0-9.75-5-9.75-10.14A11.46,11.46,0,0,1,118.83,36a12.78,12.78,0,0,1,7.34-2.75,7.15,7.15,0,0,1,4.49,1.3,1.51,1.51,0,0,1,.77,1.4,2.42,2.42,0,0,1-1.74,2.17c-.24,0-.43-.09-.91-.48a7.2,7.2,0,0,0-4.88-2c-3.18,0-6,2.71-6,7.73,0,6.71,4.53,8.93,7.33,8.93,2,0,3.67-.53,5.89-2.66Z"/><path d="M152.1,50.88c-3.09,3.86-6.47,4.68-8,4.68-5.89,0-9.46-4.83-9.46-10.38a12.42,12.42,0,0,1,3.14-8.45A9.89,9.89,0,0,1,145,33.21a7.53,7.53,0,0,1,7.39,7.48c-.05,1-.19,1.4-1,1.59-1,.2-7.14.63-12.89.83-.14,6.46,3.82,9.12,7.24,9.12a8.15,8.15,0,0,0,5.6-2.46ZM143.79,35c-2.22,0-4.39,2.08-5.07,6,2.71,0,5.41,0,8.26-.15.87,0,1.16-.24,1.16-1C148.19,37.36,146.5,35,143.79,35Z"/><path d="M154.51,55V53.63c3.09-.29,3.48-.53,3.48-3.72V26.79c0-2.95-.24-3.24-3.33-3.62V21.91a34.17,34.17,0,0,0,7.14-1.64V49.91c0,3.19.29,3.43,3.43,3.72V55Z"/><rect class="cls-2" x="199.5" y="10.91" width="12" height="52.1" transform="translate(27.96 146.85) rotate(-41.95)"/><rect class="cls-2" x="177.11" y="30.96" width="54.55" height="12" transform="translate(34.13 155.93) rotate(-45.19)"/></g></g></svg>