<svg xmlns="http://www.w3.org/2000/svg" viewBox="0 0 240 71"><defs><style>.cls-1{fill:#242424;}.cls-2{fill:#ffd04d;}.cls-3{fill:#f3c44c;}</style></defs><title>group icon</title><g id="Layer_2" data-name="Layer 2"><g id="top_bar" data-name="top bar"><rect class="cls-1" width="240" height="71" rx="15" ry="15"/><circle class="cls-2" cx="39.89" cy="25.24" r="9.89"/><path class="cls-2" d="M23.56,59.75H56.8L46.08,40.89c-3-5.21-8.74-5.23-11.71,0Z"/><circle class="cls-2" cx="59.45" cy="18.23" r="9.89"/><path class="cls-2" d="M43.11,52.73H76.36L65.63,33.87c-3-5.21-8.74-5.22-11.7,0Z"/><path class="cls-3" d="M139.52,34.22c-1.7.3-1.91.42-1.91,2.44V39a16.74,16.74,0,0,0,.18,2.89,44.6,44.6,0,0,1-6.8,1c-7,0-11.45-4-11.45-10.17,0-6.77,5.42-10.08,11.78-10.08a44.28,44.28,0,0,1,6,.69c.06,1.31.33,3.57.54,5.21l-1.17.21c-.65-2.32-1.76-3.87-3.6-4.5a8.12,8.12,0,0,0-2.42-.3c-3.61,0-6.5,2.93-6.5,8.26,0,5,1.91,9.39,6.8,9.39a4.16,4.16,0,0,0,1.85-.35c.44-.27.68-.78.68-1.7V36.81c0-2.08-.41-2.29-2.92-2.59v-1.1h8.92Z"/><path class="cls-3" d="M160.48,42.57c-.18,0-.54,0-.89,0-3.79-.18-4.89-1-5.79-2.24a53.39,53.39,0,0,1-3.07-5.25,1.68,1.68,0,0,0-1.82-1l-.6,0v4.35c0,2.42.3,2.63,2.54,2.9v1.1h-9.12v-1.1c2.26-.24,2.53-.48,2.53-2.9V27c0-2.35-.3-2.68-2.53-2.86V23h8.64c2.66,0,4.18.3,5.4,1.13a4.57,4.57,0,0,1,2,4c0,2.65-1.76,4-3.73,4.83.45.89,1.61,2.83,2.5,4.2a23.83,23.83,0,0,0,2.27,3.1,3.55,3.55,0,0,0,1.88,1.31Zm-11.36-9.75A4.35,4.35,0,0,0,152,32a4.21,4.21,0,0,0,1.4-3.49c0-3.16-1.81-4.29-3.48-4.29-.81,0-1.2.12-1.38.3s-.27.54-.27,1.13v7.13Z"/><path class="cls-3" d="M172.2,22.59a9.72,9.72,0,0,1,10,9.9c0,6.35-4.53,10.35-10.17,10.35a9.92,9.92,0,0,1-10.28-10.11A10,10,0,0,1,172.2,22.59Zm-.45,1.31c-3,0-5.27,3-5.27,8.26,0,5,2,9.36,6,9.36,2.83,0,5-2.74,5-8.2C177.54,27.42,175.21,23.9,171.75,23.9Z"/><path class="cls-3" d="M205.36,24.11c-1.91.18-2.41.75-2.53,1.82a37.77,37.77,0,0,0-.15,4v3.9c0,2.57-.42,5.16-2.12,7a7.72,7.72,0,0,1-5.6,2.06,8.51,8.51,0,0,1-5.34-1.55c-1.73-1.32-2.57-3.13-2.57-6.47V27.27c0-2.74-.26-2.95-2.53-3.16V23h9.21v1.1c-2.23.21-2.5.42-2.5,3.16V35.2c0,3.34,1.64,5.55,4.83,5.55,3.55,0,5.1-2.62,5.1-7.1V29.93c0-2.06-.09-3.14-.15-4-.12-1.37-1-1.67-3-1.79V23h7.39Z"/><path class="cls-3" d="M215.32,23c2.36,0,4.24.33,5.46,1.19A5.18,5.18,0,0,1,223,28.7c0,4.33-3.67,6.15-6.86,6.18a7.52,7.52,0,0,1-.9-.06l-1.72-.45v4.05c0,2.51.2,2.63,2.8,2.87v1.1h-9.48v-1.1c2.23-.27,2.53-.36,2.53-2.87V27c0-2.5-.3-2.77-2.53-2.92V23Zm-1.78,10.11a3.94,3.94,0,0,0,1.58.29c1.37,0,3.6-.8,3.6-4.74,0-3.34-1.82-4.44-3.76-4.44a1.82,1.82,0,0,0-1.16.3c-.21.18-.26.48-.26.92Z"/></g></g></svg>