<svg xmlns="http://www.w3.org/2000/svg" viewBox="0 0 148.76 69"><defs><style>.cls-1{fill:#242424;}.cls-2{fill:#f3c44c;}</style></defs><title>log out icon</title><g id="Layer_2" data-name="Layer 2"><g id="top_bar" data-name="top bar"><rect class="cls-1" width="148.76" height="69" rx="15" ry="15"/><path class="cls-2" d="M47,35.91c-.2,1.11-.92,3.83-1.15,4.53H33.13v-.95c2.26-.16,2.47-.34,2.47-2.5V27.2c0-2.16-.26-2.36-2.18-2.52v-.95h8v.95c-2,.18-2.26.36-2.26,2.52v10c0,1.42,0,2.06,1.46,2.08.06,0,1.24,0,1.34,0a2.6,2.6,0,0,0,2.47-1,11.06,11.06,0,0,0,1.62-2.67Z"/><path class="cls-2" d="M55,28.72a5.71,5.71,0,0,1,5.91,5.81,6.06,6.06,0,1,1-12.11.28A6.06,6.06,0,0,1,55,28.72Zm-.31,1c-1.11,0-2.19,1.15-2.19,4.31s1.06,5.63,2.68,5.63c1,0,2-.67,2-4.42C57.24,31.7,56.31,29.75,54.72,29.75Z"/><path class="cls-2" d="M66.56,36.43a1.55,1.55,0,0,0-.46.87c0,.41.46,1,1.7,1,.82,0,1.72-.05,2.57-.05,1.56,0,3.95.41,3.95,3.08,0,3-3.54,5.32-7,5.32S62.48,45,62.48,43.57a1.75,1.75,0,0,1,.77-1.41,22.73,22.73,0,0,1,1.93-1.31,3.72,3.72,0,0,1-1.93-1.42A2.22,2.22,0,0,1,62.84,38a7.81,7.81,0,0,0,2.77-1.87Zm1.24.25c-2.93,0-4.83-1.56-4.83-3.88,0-2.77,2.67-4.08,5-4.08a6.22,6.22,0,0,1,2.91.67A18.86,18.86,0,0,0,74.4,29l.13.2a3.29,3.29,0,0,1-1,1.6c-.44,0-1.16-.11-1.52-.13a3.13,3.13,0,0,1,.62,2.1C72.68,35.37,70.32,36.68,67.8,36.68Zm.31,4.24c-1.31,0-1.93.16-2.29.52a2.07,2.07,0,0,0-.72,1.41c0,1.36,1.28,2.42,3.49,2.42,2,0,3.22-1,3.22-2.39a1.74,1.74,0,0,0-1.42-1.72A8.48,8.48,0,0,0,68.11,40.92ZM67.82,29.7c-.79,0-1.59.95-1.59,2.82s.59,3.19,1.8,3.19c1,0,1.57-1.06,1.57-2.91C69.6,31.19,69.06,29.7,67.82,29.7Z"/><path class="cls-2" d="M87,28.72a5.71,5.71,0,0,1,5.91,5.81,6.05,6.05,0,1,1-12.1.28A6.06,6.06,0,0,1,87,28.72Zm-.3,1c-1.11,0-2.19,1.15-2.19,4.31s1.06,5.63,2.67,5.63c1,0,2-.67,2-4.42C89.2,31.7,88.28,29.75,86.69,29.75Z"/><path class="cls-2" d="M107.6,39.82c-1.54.21-3.18.54-4.88.92V39a5.7,5.7,0,0,1-3.55,1.74c-2.15,0-3.36-1.38-3.36-3.67V31.75c0-1.18-.15-1.31-.85-1.49l-.54-.15v-.83c1.31-.05,3.34-.23,4.78-.43,0,1.08-.08,2.41-.08,3.88v3.75c0,1.67.85,2.23,1.75,2.23a2.29,2.29,0,0,0,1.85-.74V31.78c0-1.18-.13-1.39-.85-1.52l-.77-.15v-.83a49.29,49.29,0,0,0,5-.43v8.37c0,1.34.16,1.62,1,1.7l.56,0Z"/><path class="cls-2" d="M114.08,40.46a2.72,2.72,0,0,1-1,.28c-2,0-3.16-.92-3.16-3.26V30.31h-1.64l-.16-.31.75-1h1V26.89c.88-.61,2.13-1.43,3-2.05l.34.2c0,.7-.08,2.06-.05,4h2.57a1.11,1.11,0,0,1-.21,1.28h-2.36v6.3c0,2,.82,2.23,1.31,2.23a3.11,3.11,0,0,0,1.23-.25l.26.92Z"/></g></g></svg>