<svg xmlns="http://www.w3.org/2000/svg" viewBox="0 0 484.04 182.62"><defs><style>.cls-1{fill:#f3c44c;}.cls-2{fill:#ffcd4c;}</style></defs><title>LOGO</title><g id="Layer_2" data-name="Layer 2"><g id="Layer_3" data-name="Layer 3"><path class="cls-1" d="M98.87,119.11c-1.08,5.61-6.5,24.4-8.31,30h-84v-5.06c16.45-1.63,17.89-2.53,17.89-17.9V54.4C24.4,39,22.59,38.13,8.13,36.69V31.63H56.58v5.06C42.12,38.13,40.13,38.86,40.13,54.4V128c0,11,1.44,13.56,11.75,13.74.18.18,13.19.18,14.28.18,9.22,0,11.93-1.09,16.08-5.61,4.52-4.7,8.32-11.93,11-18.61Z" transform="translate(0 -31.26)"/><path class="cls-1" d="M204.61,120.38c-1.08,4.7-6,23.31-7.77,28.74H109v-5.06c16.81-1.27,18.08-2.9,18.08-17.72V54.94c0-16.08-2-17-15.55-18.25V31.63h55.31c17,0,24-.18,26.21-.37.18,4.52.91,18.08,1.63,27.66l-5.42.9a60.17,60.17,0,0,0-5.43-13.73c-2.89-6-7-7.23-17.89-7.23H148.76c-5.61,0-6,.54-6,5.78v40h20.07c13.55,0,14.46-2.71,16.63-15h5.6v37.24h-5.6c-2.35-13-3.8-14.82-16.82-14.82H142.79v36c0,12.65,4,13.74,13,13.92h16.81c11,0,12.83-1.63,16.81-6.33,3.43-3.8,7.23-11.21,9.76-16.63Z" transform="translate(0 -31.26)"/><path class="cls-1" d="M343.06,36.69c-15,1.44-16.45,2.35-16.45,17.53V126.7c0,15.19,1.63,15.73,16.45,17.36v5.06H294.62v-5.06c15-1.81,16.45-2.17,16.45-17.36V90.55H249.25V126.7c0,15,1.45,15.55,16.27,17.36v5.06H217.26v-5.06c14.64-1.63,16.26-2.17,16.26-17.36V54.22c0-15.18-1.62-16.09-16.26-17.53V31.63h48.26v5.06c-14.46,1.26-16.27,2.53-16.27,17.53V83h61.82V54.22c0-15-2-16.27-16.45-17.53V31.63h48.44Z" transform="translate(0 -31.26)"/><path class="cls-1" d="M482.06,36.69c-11.39.72-15.55,3.61-15.91,11.93-.18,4.15-.54,11.75-.54,28.38V96.52c0,18.43-2.17,32.53-12.65,43.56-8.5,8.86-20.79,11.57-33.26,11.57-10.49,0-21.69-2.17-29.65-8.32C379.21,135,374,122.55,374,101.4V55.31C374,39,372.52,38,358.06,36.69V31.63H405.6v5.06c-14.46.9-15.91,2.35-15.91,18.62v45.18c0,26.39,12.47,40.85,34.16,40.85,25.67,0,33.81-15.9,33.81-45.91V77c0-16.63-.55-23.5-.91-28.38-.54-8.14-4.7-11.21-18.07-11.93V31.63h43.38Z" transform="translate(0 -31.26)"/><path class="cls-1" d="M0,167.19v-9H484v9Z" transform="translate(0 -31.26)"/><path class="cls-2" d="M22.4,193.38c4.72.63,8.54,2.45,8.54,6.29,0,2.69-1.86,4.83-4.76,6.1a19.56,19.56,0,0,1-8.49,1.54H5.62V206.2c4.17-.32,4.41-.67,4.41-3.8V186.53c0-3.29-.44-3.56-4.41-3.84v-1.11H18.48c3.68,0,6,.52,7.56,1.39a5,5,0,0,1,2.89,4.43C28.93,191.12,25.15,192.82,22.4,193.38Zm-5.64-.48c5.4,0,7.61-1.74,7.61-5,0-2.77-2.11-4.9-6.83-4.9a6.36,6.36,0,0,0-2.75.39c-.39.24-.54.68-.54,1.94v7.56Zm-2.51,9.42c0,2.85.84,3.56,4.32,3.56,3.83,0,7.56-1.66,7.56-5.81s-3.53-5.78-9.52-5.78H14.25Z" transform="translate(0 -31.26)"/><path class="cls-2" d="M64.08,207.63c-.64,0-1.18,0-1.82-.08-3.58-.2-5.5-1-7.66-3.41-1.81-2-3.58-4.51-5.15-6.53-1-1.26-1.62-1.5-4.12-1.5H43.61v6.21c0,3.37.54,3.56,4.46,3.88v1.11H35V206.2c4.07-.36,4.42-.51,4.42-3.88V186.53c0-3.36-.54-3.48-4.42-3.84v-1.11H47.49c3.58,0,6,.36,7.85,1.35a5.71,5.71,0,0,1,3.34,5.22c0,3.41-2.7,5.54-6.33,6.81.88,1.23,3,3.88,4.46,5.66a38.78,38.78,0,0,0,3.88,4.08,7.6,7.6,0,0,0,3.58,1.82ZM46,194.76c2.56,0,4.18-.31,5.4-1.15a5.18,5.18,0,0,0,2.7-4.86c0-4.24-3.48-5.78-7.26-5.78a5.51,5.51,0,0,0-2.6.39c-.45.28-.59.68-.59,1.7v9.7Z" transform="translate(0 -31.26)"/><path class="cls-2" d="M66,207.31V206.2c4-.36,4.42-.51,4.42-3.88V186.61c0-3.41-.4-3.56-4.42-3.92v-1.11H79.15v1.11c-4.08.36-4.47.51-4.47,3.92v15.71c0,3.41.39,3.52,4.47,3.88v1.11Z" transform="translate(0 -31.26)"/><path class="cls-2" d="M117.82,182.69c-3.14.28-4.17.67-4.32,2.49,0,1.27-.14,2.93-.14,6.61v15.88h-1.87L90.48,187v9.9c0,3.56.15,5.34.25,6.49.1,2,1.32,2.61,4.86,2.85v1.11H83.66V206.2c3-.2,4.22-.79,4.42-2.73a58.82,58.82,0,0,0,.24-6.65V186.73a3,3,0,0,0-1-2.62c-.93-1-2-1.22-4.37-1.42v-1.11h7.37l20.81,19.91v-9.7a54.24,54.24,0,0,0-.25-6.57c-.14-1.78-1.27-2.33-5.2-2.53v-1.11h12.12Z" transform="translate(0 -31.26)"/><path class="cls-2" d="M153.9,196.5c-3,.32-3.24.56-3.24,2.89v3.33a17.31,17.31,0,0,0,.3,3.76,59.94,59.94,0,0,1-11,1.42c-11,0-18.06-5.58-18.06-13.53,0-8.59,8.44-13.34,18.26-13.34a75,75,0,0,1,10.21,1c.1,1.46.34,3.92.73,6.41l-1.47.24c-1.18-3.37-2.65-4.91-5.74-5.74a17.89,17.89,0,0,0-4.42-.44c-7.51,0-12.47,3.92-12.47,11.4,0,6.33,4,12.55,13.6,12.55a12.08,12.08,0,0,0,4.17-.63,2.4,2.4,0,0,0,1.62-2.62V200c0-2.89-.39-3.21-5.1-3.49v-1.14H153.9Z" transform="translate(0 -31.26)"/><path class="cls-2" d="M182.27,182.69c-3.83.36-4.22.59-4.22,3.92v14.64c0,5.23-1,8-4.32,10.33a17,17,0,0,1-4.57,2.3l-.78-1.19a7.4,7.4,0,0,0,4.91-5.22,35,35,0,0,0,.49-7.52V186.61c0-3.33-.44-3.6-4.47-3.92v-1.11h13Z" transform="translate(0 -31.26)"/><path class="cls-2" d="M202.79,181c8.39,0,15.9,5.18,15.9,13.06,0,8.51-7.16,13.81-16.2,13.81-9.42,0-16.29-5.78-16.29-13.22C186.2,187.6,192.43,181,202.79,181Zm-1,1.46c-5.5,0-10.51,3.72-10.51,11.12s5,12.79,12,12.79c5.94,0,10.41-3.56,10.41-11.2C213.69,186.89,208.24,182.49,201.81,182.49Z" transform="translate(0 -31.26)"/><path class="cls-2" d="M250.74,182.69c-3.43.32-4,.75-6,3.28-2.2,2.89-4,5.63-6.43,9.15a3.56,3.56,0,0,0-.73,2.33v4.87c0,3.29.44,3.52,5,3.88v1.11H228.51V206.2c4.46-.47,4.81-.55,4.81-3.88v-5.1c0-.8-.2-1.15-1-2.3-1.72-2.57-3.39-5.07-6-8.79-1.92-2.69-2.41-3.16-5.75-3.44v-1.11h12.08v1.11c-3.53.4-3.34.91-2.45,2.26,2.06,3,4.36,6.61,6.43,9.57,1.76-2.65,4.56-7,5.94-9.14,1.12-2,1-2.37-2.9-2.69v-1.11h11.09Z" transform="translate(0 -31.26)"/><path class="cls-2" d="M288.05,187.8a13.67,13.67,0,0,0-1.57-3.29c-.79-1.07-1.28-1.34-4-1.34h-4.91v19.27c0,3.09.39,3.52,5.06,3.76v1.11H268.36V206.2c4.57-.24,5-.63,5-3.76V183.17h-4.47c-2.7,0-3.48.23-4.32,1.42a16.23,16.23,0,0,0-1.62,3.21h-1.47c.3-2.42.59-4.91.74-7.13h1.13c.73,1,1.27.91,2.65.91H285.4a2.72,2.72,0,0,0,2.5-.91h1.18c0,1.86.19,4.71.44,7Z" transform="translate(0 -31.26)"/><path class="cls-2" d="M310.13,181c8.4,0,15.91,5.18,15.91,13.06,0,8.51-7.17,13.81-16.2,13.81-9.42,0-16.3-5.78-16.3-13.22C293.54,187.6,299.78,181,310.13,181Zm-1,1.46c-5.5,0-10.5,3.72-10.5,11.12s5,12.79,12,12.79c5.93,0,10.4-3.56,10.4-11.2C321,186.89,315.58,182.49,309.15,182.49Z" transform="translate(0 -31.26)"/><path class="cls-2" d="M367.86,187.8a13.31,13.31,0,0,0-1.57-3.29c-.79-1.07-1.28-1.34-4-1.34H357.4v19.27c0,3.09.39,3.52,5.06,3.76v1.11H348.17V206.2c4.57-.24,5-.63,5-3.76V183.17h-4.47c-2.7,0-3.48.23-4.32,1.42a16.29,16.29,0,0,0-1.61,3.21h-1.48c.3-2.42.59-4.91.74-7.13h1.13c.73,1,1.27.91,2.65.91h19.44a2.72,2.72,0,0,0,2.5-.91h1.18c0,1.86.19,4.71.44,7Z" transform="translate(0 -31.26)"/><path class="cls-2" d="M387.2,207.31V206.2c3.19-.32,3.58-.71,2.89-2.22s-1.62-3.52-2.65-6h-10.6c-.79,1.78-1.52,3.32-2.21,4.95-1.08,2.57-.39,2.89,3.63,3.28v1.11H366.92V206.2c3.1-.32,3.88-.59,5.6-4.16l10.16-20.78,1.57-.23c3.09,6.77,6.48,14.25,9.57,21.09,1.57,3.45,2,3.76,5.5,4.08v1.11Zm-4.91-21.1c-1.57,3.41-3.24,7-4.71,10.14h9.17Z" transform="translate(0 -31.26)"/><path class="cls-2" d="M418.07,193.38c4.71.63,8.54,2.45,8.54,6.29,0,2.69-1.86,4.83-4.76,6.1a19.58,19.58,0,0,1-8.49,1.54H401.28V206.2c4.18-.32,4.42-.67,4.42-3.8V186.53c0-3.29-.44-3.56-4.42-3.84v-1.11h12.86c3.69,0,6,.52,7.56,1.39a5,5,0,0,1,2.9,4.43C424.6,191.12,420.82,192.82,418.07,193.38Zm-5.64-.48c5.4,0,7.6-1.74,7.6-5,0-2.77-2.11-4.9-6.82-4.9a6.33,6.33,0,0,0-2.75.39c-.39.24-.54.68-.54,1.94v7.56Zm-2.51,9.42c0,2.85.84,3.56,4.32,3.56,3.83,0,7.56-1.66,7.56-5.81s-3.53-5.78-9.52-5.78h-2.36Z" transform="translate(0 -31.26)"/><path class="cls-2" d="M455.28,200.74c-.3,1.23-1.77,5.34-2.26,6.57H430.19V206.2c4.47-.36,4.86-.55,4.86-3.92V186.57c0-3.37-.49-3.56-4.41-3.88v-1.11h13.15v1.11c-3.93.32-4.47.48-4.47,3.88v16.11c0,2.41.4,3,3.2,3,0,0,3.58,0,3.87,0,2.51,0,3.24-.24,4.37-1.23a13.16,13.16,0,0,0,3-4.08Z" transform="translate(0 -31.26)"/><path class="cls-2" d="M484,201c-.29,1-1.62,5.1-2.11,6.29H458V206.2c4.56-.28,4.9-.63,4.9-3.88V186.69c0-3.52-.54-3.72-4.22-4v-1.11h15c4.62,0,6.53,0,7.12-.08,0,1,.25,4,.44,6.06l-1.47.2a11.72,11.72,0,0,0-1.47-3c-.79-1.31-1.92-1.58-4.86-1.58h-4.67c-1.52,0-1.62.11-1.62,1.26v8.75h5.45c3.68,0,3.93-.6,4.52-3.29h1.52v8.16h-1.52c-.64-2.85-1-3.25-4.57-3.25h-5.4v7.88c0,2.77,1.08,3,3.54,3h4.56c3,0,3.49-.36,4.57-1.39a16.71,16.71,0,0,0,2.65-3.64Z" transform="translate(0 -31.26)"/></g></g></svg>