<svg xmlns="http://www.w3.org/2000/svg" viewBox="0 0 240 71"><defs><style>.cls-1{fill:#242424;}.cls-2{fill:#f3c44c;}.cls-3{fill:#ffd04d;}.cls-4{fill:#ff1414;}</style></defs><title>message icon new</title><g id="Layer_2" data-name="Layer 2"><g id="top_bar" data-name="top bar"><rect class="cls-1" width="240" height="71" rx="15" ry="15"/><path class="cls-2" d="M98.1,43.81V42.7c2.27-.24,2.42-.45,2.42-3.13l0-11.63c-2.15,5.13-4.5,10.8-6.65,15.87h-1c-1.94-4.87-4.06-10.41-6.21-15.63-.38,9.36-.38,11.21-.38,12.29,0,1.61.62,2,2.86,2.23v1.11h-7.4V42.7c1.7-.15,2.48-.47,2.72-2.26.12-.9.24-2.6.92-12.44.09-1.43-.12-2.23-2.68-2.47v-1.1h6.44l5.75,13.14,5.79-13.14H107v1.1c-2.39.24-2.66.48-2.6,2.86l.24,11.18c0,2.68.15,2.8,2.57,3.13v1.11Z"/><path class="cls-2" d="M125.75,38.74c-.15.8-1,4.23-1.26,5.07H109V42.73c2.71-.27,2.89-.42,2.89-2.92V28.42c0-2.53-.36-2.71-2.38-2.89v-1.1h9.69c3.13,0,4.17,0,4.59-.06,0,.53.18,3,.3,4.83l-1.17.14a7.35,7.35,0,0,0-1.28-2.77c-.53-.59-.92-.77-2.44-.77h-1.94c-1.13,0-1.25.06-1.25,1.07V33.1H119c1.67,0,2-.45,2.41-2.56h1.17v6.65h-1.17c-.47-2.21-.71-2.57-2.44-2.57H116v5.13c0,2.06.06,2.68,1.91,2.71h2.11c1.67,0,2.12-.21,2.78-1a13.19,13.19,0,0,0,1.81-3Z"/><path class="cls-2" d="M139.26,29.34c-.6-1.9-1.43-4.08-4.18-4.08a2.74,2.74,0,0,0-2.86,2.89c0,1.64,1.1,2.63,3.73,3.94,3.19,1.58,5.22,3.13,5.22,6.08,0,3.52-2.93,6.08-7.19,6.08a17.15,17.15,0,0,1-5-.92c-.18-.69-.68-3.79-.89-5.19l1.16-.27c.59,1.88,2.26,5.13,5.19,5.13a2.74,2.74,0,0,0,2.92-3c0-1.73-1.07-2.74-3.58-4.09-3.1-1.67-5.13-3.16-5.13-6.26s2.45-5.6,6.92-5.6a22,22,0,0,1,4.26.53c.12,1.11.33,2.66.57,4.54Z"/><path class="cls-2" d="M155.15,29.34c-.6-1.9-1.43-4.08-4.17-4.08a2.74,2.74,0,0,0-2.86,2.89c0,1.64,1.1,2.63,3.72,3.94,3.19,1.58,5.22,3.13,5.22,6.08,0,3.52-2.92,6.08-7.19,6.08a17.14,17.14,0,0,1-5-.92c-.18-.69-.69-3.79-.9-5.19l1.16-.27c.6,1.88,2.27,5.13,5.19,5.13a2.74,2.74,0,0,0,2.92-3c0-1.73-1.07-2.74-3.57-4.09-3.11-1.67-5.13-3.16-5.13-6.26S147,24,151.45,24a22.27,22.27,0,0,1,4.27.53c.12,1.11.33,2.66.56,4.54Z"/><path class="cls-2" d="M170,43.81V42.7c1.88-.27,1.88-.59,1.46-1.88-.29-.89-.77-2.23-1.22-3.42H164.4c-.33.92-.75,2.05-1.05,3-.62,1.87.09,2.11,2.45,2.32v1.11h-7.37V42.7c1.88-.24,2.36-.51,3.37-3L168,24.28l1.44-.27c1.9,5.19,3.93,10.49,5.87,15.47,1.1,2.77,1.37,3,3.31,3.22v1.11Zm-2.62-14.26c-.87,2.15-1.7,4.15-2.45,6.32h4.74Z"/><path class="cls-2" d="M199.61,35.64c-1.7.29-1.9.41-1.9,2.44v2.3a18,18,0,0,0,.17,2.89,44.35,44.35,0,0,1-6.79,1c-7,0-11.45-4-11.45-10.16,0-6.77,5.42-10.08,11.77-10.08a45,45,0,0,1,6,.68c.06,1.32.33,3.58.53,5.22l-1.16.21c-.66-2.33-1.76-3.88-3.61-4.5a8.05,8.05,0,0,0-2.41-.3c-3.61,0-6.5,2.92-6.5,8.26,0,5,1.91,9.39,6.8,9.39a4,4,0,0,0,1.85-.36c.44-.27.68-.77.68-1.7V38.23c0-2.09-.42-2.3-2.92-2.59V34.53h8.91Z"/><path class="cls-2" d="M218.19,38.74c-.15.8-1,4.23-1.25,5.07H201.47V42.73c2.71-.27,2.89-.42,2.89-2.92V28.42c0-2.53-.36-2.71-2.39-2.89v-1.1h9.69c3.13,0,4.18,0,4.59-.06,0,.53.18,3,.3,4.83l-1.16.14a7.51,7.51,0,0,0-1.28-2.77c-.54-.59-.93-.77-2.45-.77h-1.94c-1.13,0-1.25.06-1.25,1.07V33.1h2.92c1.67,0,2-.45,2.42-2.56H215v6.65h-1.16c-.48-2.21-.72-2.57-2.44-2.57h-2.9v5.13c0,2.06.06,2.68,1.91,2.71h2.12c1.67,0,2.12-.21,2.77-1a13.23,13.23,0,0,0,1.82-3Z"/><path class="cls-3" d="M45.8,18.57S23.65,43.61,26,52.1c1.76,6.34,36,7.6,37.85-.74C65.54,43.72,51.78,24.77,45.8,18.57Z"/><circle class="cls-3" cx="45.64" cy="17.8" r="5.03"/><circle class="cls-3" cx="45.73" cy="54.13" r="7.02"/><circle class="cls-4" cx="66.17" cy="13.17" r="7.17"/></g></g></svg>