<svg xmlns="http://www.w3.org/2000/svg" viewBox="0 0 254.2 75"><defs><style>.cls-1{fill:#4d4d4d;}.cls-2{fill:none;stroke:#000;stroke-miterlimit:10;}</style></defs><title>offer off</title><g id="Layer_2" data-name="Layer 2"><g id="Layer_10" data-name="Layer 10"><rect class="cls-1" x="0.5" y="0.5" width="253.2" height="74" rx="21.5" ry="21.5"/><rect class="cls-2" x="0.5" y="0.5" width="253.2" height="74" rx="21.5" ry="21.5"/><path d="M69,23.09A15.52,15.52,0,0,1,84.64,39c0,10.38-7,16.85-15.93,16.85a15.72,15.72,0,0,1-16-16.12C52.68,31.11,58.81,23.09,69,23.09Zm-1,1.79c-5.41,0-10.33,4.54-10.33,13.56S62.62,54,69.48,54c5.84,0,10.23-4.35,10.23-13.66C79.71,30.24,74.36,24.88,68,24.88Z"/><path d="M96.08,35.93v14c0,3.47,0,3.52,3.38,3.91v1.35H88.84V53.8c3.09-.29,3.43-.49,3.43-3.62V35.93H88.84l-.19-.53L89.71,34h2.56a12.58,12.58,0,0,1,4.49-9.75A12.36,12.36,0,0,1,103,21.35,7.87,7.87,0,0,1,109.26,24l-2.17,2.9a6.25,6.25,0,0,0-5.55-3.24c-4.44,0-5.46,5.21-5.46,10.28h5v2Zm3.82-2h5.4c0-4.78,1.16-8.25,4.25-10.91a9.81,9.81,0,0,1,5.36-2.6A5.38,5.38,0,0,1,118.82,22a1.76,1.76,0,0,1,.15,1.69A3,3,0,0,1,118,25a.9.9,0,0,1-1.35-.09,5.59,5.59,0,0,0-3.81-1.79,2.62,2.62,0,0,0-2.51,1.4c-.63.92-1.21,3.19-1.16,7.24V34h5.12a1.86,1.86,0,0,1-.49,2h-4.63v14c0,3.47.53,3.52,4.2,3.91v1.35h-11.2V53.8c3-.29,3.18-.49,3.18-3.62V35.93H99.9Z"/><path d="M133.45,51c-3.09,3.87-6.47,4.69-8,4.69-5.89,0-9.47-4.83-9.47-10.38a12.38,12.38,0,0,1,3.14-8.45,9.91,9.91,0,0,1,7.2-3.53,7.53,7.53,0,0,1,7.38,7.49c-.05,1-.19,1.4-1,1.59-1,.19-7.15.63-12.89.82-.15,6.47,3.81,9.13,7.24,9.13a8.14,8.14,0,0,0,5.6-2.47Zm-8.3-15.83c-2.22,0-4.4,2.08-5.07,6,2.7,0,5.41,0,8.25-.15.87,0,1.16-.24,1.16-1C129.54,37.53,127.85,35.21,125.15,35.21Z"/><path d="M147.69,55.15h-11.1V53.8c3-.29,3.33-.53,3.33-3.67v-10c0-3.19-.19-3.34-3-3.67V35.21a26.94,26.94,0,0,0,6.8-2v5.31c1.69-2.51,3.72-5.17,6.14-5.17,1.78,0,2.8,1.12,2.8,2.32A3.26,3.26,0,0,1,151,38.35a.94.94,0,0,1-1.25-.1A3.07,3.07,0,0,0,147.6,37c-1,0-2.8,1.5-3.87,4v9.08c0,3.19.25,3.43,4,3.72Z"/><path d="M155.08,55.15V53.8c3-.29,3.38-.53,3.38-3.82V40c0-3-.15-3.19-3-3.67V35.21a31.73,31.73,0,0,0,6.85-1.93V50c0,3.29.34,3.53,3.48,3.82v1.35Zm5-26.6A2.65,2.65,0,0,1,157.54,26a2.61,2.61,0,0,1,2.61-2.66A2.52,2.52,0,0,1,162.61,26,2.57,2.57,0,0,1,160.1,28.55Z"/><path d="M182.07,55.15V53.8c2.8-.29,3.09-.63,3.09-3.91v-8c0-3.38-1.21-5.65-4.4-5.65a8.43,8.43,0,0,0-5.35,2.51v11.3c0,3.33.29,3.43,3.13,3.72v1.35H168.12V53.8c3.18-.34,3.47-.53,3.47-3.72V40.13c0-3.13-.34-3.28-2.94-3.71V35.16a27.55,27.55,0,0,0,6.76-1.93V37c1-.67,2-1.4,3.28-2.22a7.4,7.4,0,0,1,4-1.45c3.86,0,6.27,2.85,6.27,7.54v9.17c0,3.28.29,3.43,3.09,3.72v1.35Z"/><path d="M201.29,48.1a3.54,3.54,0,0,0-1.6,2.41c0,.87.82,1.84,3,1.84,1.78,0,3.81-.05,5.4-.05,3.09,0,7,1,7,5.79,0,5-5.94,9.76-12.36,9.76-5.45,0-8.4-3.19-8.49-6a3.81,3.81,0,0,1,1.2-2.75,45.21,45.21,0,0,1,4-3.48,6.29,6.29,0,0,1-3.62-2.6,4.48,4.48,0,0,1-.58-2.08,10.26,10.26,0,0,0,4.44-3.33Zm2.31.48c-4.49,0-8.2-2.75-8.2-7.29,0-5.5,4.92-8.06,8.69-8.06a9.81,9.81,0,0,1,4.63,1.21,32.24,32.24,0,0,0,6.47-.73l.29.44a6,6,0,0,1-1.79,2.56c-.72,0-2.31-.2-3-.25a7.49,7.49,0,0,1,1.4,4.4C212.1,46.12,207.75,48.58,203.6,48.58Zm1.11,7.15c-2.36,0-3.42.29-4.29,1a5.54,5.54,0,0,0-2.32,4c0,2.66,2.75,4.64,6.47,4.64,4.58,0,7.19-2.37,7.19-5.46a3.61,3.61,0,0,0-2.12-3.52A12.83,12.83,0,0,0,204.71,55.73Zm-1.11-21c-2.17,0-4.1,2-4.1,5.8S201.43,47,204.09,47c2.12-.1,4-1.89,4-5.8S206.31,34.77,203.6,34.77Z"/></g></g></svg>