<svg xmlns="http://www.w3.org/2000/svg" viewBox="0 0 253.2 74"><defs><style>.cls-1{fill:#f3c44c;}.cls-2{fill:#00aa3f;}</style></defs><title>post icon_1</title><g id="Layer_2" data-name="Layer 2"><g id="Layer_10" data-name="Layer 10"><rect class="cls-1" width="253.2" height="74" rx="21.5" ry="21.5"/><path d="M69.69,23.27c3.43,0,6.18.63,8.16,2.07A8.17,8.17,0,0,1,81,32.2c0,7-6,9.9-10.62,9.9a8.16,8.16,0,0,1-1.3-.1l-3.33-.87v7.53c0,4.06.34,4.15,4.78,4.64v1.35H57.23V53.3c4.15-.44,4.35-.73,4.35-4.73V29.4c0-4.3-.53-4.39-4.35-4.78V23.27ZM65.78,39.44a8.73,8.73,0,0,0,3.52.63c3.24,0,7.24-1.64,7.24-7.73,0-5.31-3.47-7.43-7.53-7.43a4.28,4.28,0,0,0-2.7.58c-.39.34-.53.92-.53,2.22Z"/><path d="M94.41,32.87c6,0,10.52,4.59,10.52,10.82,0,7.82-5.79,11.54-10.52,11.54A10.61,10.61,0,0,1,83.69,44.46C83.69,36.59,89.82,32.87,94.41,32.87Zm-.58,1.65c-3,0-5.6,2.84-5.6,8.44,0,6.14,2.7,10.58,6.66,10.58,3,0,5.5-2.17,5.5-8.79C100.39,39.1,98.08,34.52,93.83,34.52Z"/><path d="M121.06,39.2c-.87-2.8-2.22-4.73-5.17-4.73a3,3,0,0,0-3.09,3.14c0,2.12,1.6,3.13,4.2,4.29,4,1.74,6.23,3.29,6.23,6.62,0,4.44-4.06,6.71-7.87,6.71a12.49,12.49,0,0,1-5.74-1.4c-.24-1.4-.68-4.15-.87-5.75l1.4-.24c.87,3.09,2.56,5.75,5.93,5.75a3.3,3.3,0,0,0,3.48-3.29c0-2.17-1.3-3.33-4-4.49-3.14-1.44-6.22-3-6.22-6.71s3.08-6.23,7.62-6.23a26.43,26.43,0,0,1,4.73.63c.15,1.16.49,4.2.73,5.36Z"/><path d="M135.49,54.6a4.94,4.94,0,0,1-2.07.63c-3.09,0-4.73-1.89-4.73-5.75v-14h-3.33l-.2-.58,1.31-1.4h2.22V29.4c.91-1,2.31-2.22,3.23-3.19l.73.1c-.1,2-.15,4.83-.15,7.14H138a1.5,1.5,0,0,1-.29,2H132.5V47.79c0,3.91,1.55,4.64,2.8,4.64a7.06,7.06,0,0,0,2.95-.77l.43,1.25Z"/><polygon class="cls-2" points="178.09 41.33 191.59 41.33 201.84 49.75 220.59 12.5 229.84 12.5 206.34 60.5 199.59 60.5 178.09 41.33"/></g></g></svg>