<svg xmlns="http://www.w3.org/2000/svg" viewBox="0 0 179 57"><defs><style>.cls-1{fill:#f3c44c;}</style></defs><title>save icon</title><g id="Layer_2" data-name="Layer 2"><g id="profile"><rect class="cls-1" width="179" height="57" rx="14" ry="14"/><path d="M73.11,23.48C72.53,21.24,71.45,19,68.46,19a3.42,3.42,0,0,0-3.66,3.66c0,2.44,1.63,3.63,4.31,5s5.83,2.92,5.83,6.75c0,3.59-3,6.44-7.43,6.44a17.08,17.08,0,0,1-5.22-1.05c-.24-.85-.68-3.63-.91-5.22l1-.27C63,36.4,64.5,39.59,68,39.59a3.76,3.76,0,0,0,4.07-4c0-2.54-1.77-3.69-4.38-5.08-2.2-1.19-5.59-2.85-5.59-6.72,0-3.25,2.41-5.93,6.88-5.93a30.86,30.86,0,0,1,4.65.58c.13,1.22.27,2.68.54,4.88Z"/><path d="M88.81,40.74a2.51,2.51,0,0,1-1.6-.64,3.2,3.2,0,0,1-.81-1.53c-1.36.92-3,2.17-4.07,2.17a4.15,4.15,0,0,1-4.13-4.17c0-1.66.91-2.75,2.77-3.39A26.48,26.48,0,0,0,86.33,31V30.3c0-2.41-1.22-3.8-3-3.8a2,2,0,0,0-1.6.78,7.19,7.19,0,0,0-.91,2.2.93.93,0,0,1-1,.78,1.63,1.63,0,0,1-1.5-1.49c0-.47.44-.88,1.12-1.35A14.19,14.19,0,0,1,84.37,25a4.46,4.46,0,0,1,4.57,4.85v6.54c0,1.56.58,2,1.19,2a2.71,2.71,0,0,0,1.22-.37l.34.94Zm-2.48-8.58c-.74.38-2.37,1.09-3.15,1.43-1.29.57-2.07,1.22-2.07,2.47a2.47,2.47,0,0,0,2.44,2.61,4.5,4.5,0,0,0,2.78-1.22Z"/><path d="M107.36,26.36c-1.84.24-2.07.51-3,2.55-1.11,2.71-3.05,7.22-4.81,11.8h-1c-1.43-3.9-3.09-7.94-4.68-11.9-.78-2-1.05-2.17-2.82-2.45v-.91H98v.91c-1.86.24-1.93.48-1.39,1.94.85,2.34,2.27,5.93,3.22,8.3,1.22-3,2.34-5.79,3.09-8,.57-1.67.47-2-1.77-2.28v-.91h6.18Z"/><path d="M120.51,37.45c-2.17,2.71-4.54,3.29-5.63,3.29-4.13,0-6.64-3.39-6.64-7.29a8.68,8.68,0,0,1,2.2-5.93,7,7,0,0,1,5-2.48,5.29,5.29,0,0,1,5.19,5.26c0,.68-.14,1-.68,1.12s-5,.44-9,.57c-.1,4.55,2.68,6.41,5.09,6.41A5.75,5.75,0,0,0,120,36.67Zm-5.83-11.12c-1.56,0-3.09,1.46-3.56,4.2,1.9,0,3.8,0,5.8-.1.61,0,.81-.17.81-.68A3.15,3.15,0,0,0,114.68,26.33Z"/></g></g></svg>