<svg xmlns="http://www.w3.org/2000/svg" viewBox="0 0 253.2 74"><defs><style>.cls-1{fill:#4d4d4d;}</style></defs><title>seek off</title><g id="Layer_2" data-name="Layer 2"><g id="Layer_10" data-name="Layer 10"><rect class="cls-1" width="253.2" height="74" rx="21.5" ry="21.5"/><path d="M68.93,30.65c-.82-3.18-2.36-6.37-6.61-6.37A4.88,4.88,0,0,0,57.1,29.5c0,3.47,2.32,5.16,6.13,7.09s8.31,4.15,8.31,9.61c0,5.12-4.35,9.17-10.57,9.17a24.67,24.67,0,0,1-7.44-1.49c-.34-1.21-1-5.17-1.3-7.44l1.49-.39c.82,3,3,7.54,7.92,7.54,3.67,0,5.79-2.27,5.79-5.75s-2.51-5.26-6.22-7.24c-3.14-1.69-8-4.06-8-9.56,0-4.63,3.43-8.45,9.8-8.45a45.32,45.32,0,0,1,6.62.82c.19,1.74.38,3.82.77,7Z"/><path d="M93.7,50.54c-3.09,3.87-6.47,4.69-8,4.69-5.89,0-9.46-4.83-9.46-10.38a12.38,12.38,0,0,1,3.14-8.45,9.91,9.91,0,0,1,7.19-3.53,7.54,7.54,0,0,1,7.39,7.49c0,1-.19,1.4-1,1.59-1,.19-7.14.63-12.89.82-.14,6.47,3.82,9.13,7.25,9.13a8.14,8.14,0,0,0,5.6-2.47ZM85.4,34.71c-2.23,0-4.4,2.08-5.07,6,2.7,0,5.4,0,8.25-.15.87,0,1.16-.24,1.16-1C89.79,37,88.1,34.71,85.4,34.71Z"/><path d="M115.09,50.54c-3.09,3.87-6.47,4.69-8,4.69-5.89,0-9.46-4.83-9.46-10.38a12.38,12.38,0,0,1,3.14-8.45,9.89,9.89,0,0,1,7.19-3.53,7.54,7.54,0,0,1,7.39,7.49c0,1-.2,1.4-1,1.59-1,.19-7.14.63-12.89.82-.14,6.47,3.82,9.13,7.24,9.13a8.12,8.12,0,0,0,5.6-2.47Zm-8.31-15.83c-2.22,0-4.39,2.08-5.07,6,2.71,0,5.41,0,8.26-.15.87,0,1.16-.24,1.16-1C111.18,37,109.49,34.71,106.78,34.71Z"/><path d="M141.69,54.65c-2.61,0-5.46.05-6.47.1-.29-.34-7.82-9.32-8.16-9.61-.63-.77-1-1-1.4-1a2.9,2.9,0,0,0-.87.1v5.36c0,3.23.24,3.43,3.38,3.72v1.35H117.5V53.3c3.24-.29,3.48-.63,3.48-3.72V26.5c0-3.14-.34-3.23-3.33-3.67V21.58a30.22,30.22,0,0,0,7.14-1.64V43a5.7,5.7,0,0,0,3.09-1.68,37.78,37.78,0,0,0,3.67-4.35c1-1.4.63-1.79-1.69-2V33.6l9.95-.44v1.31c-3.38.53-4.35.92-6.43,3.09-.91,1-3,3.28-4,4.54,1,1.35,5.89,6.95,7.48,8.64,2.32,2.32,3,2.46,4.88,2.56Z"/><path d="M142.8,54.65V53.3c3-.29,3.38-.53,3.38-3.82V39.54c0-3-.15-3.19-3-3.67V34.71A31.73,31.73,0,0,0,150,32.78v16.7c0,3.29.34,3.53,3.48,3.82v1.35Zm5-26.6a2.65,2.65,0,0,1-2.56-2.56,2.61,2.61,0,0,1,2.61-2.66,2.52,2.52,0,0,1,2.46,2.66A2.57,2.57,0,0,1,147.82,28.05Z"/><path d="M169.79,54.65V53.3c2.8-.29,3.09-.63,3.09-3.91v-8c0-3.38-1.21-5.65-4.4-5.65a8.4,8.4,0,0,0-5.35,2.51v11.3c0,3.33.28,3.43,3.13,3.72v1.35H155.83V53.3c3.19-.34,3.48-.53,3.48-3.72V39.63c0-3.13-.34-3.28-2.94-3.71V34.66a27.55,27.55,0,0,0,6.76-1.93v3.81c1-.67,2-1.4,3.28-2.22a7.37,7.37,0,0,1,4-1.45c3.86,0,6.27,2.85,6.27,7.54v9.17c0,3.28.29,3.43,3.09,3.72v1.35Z"/><path d="M189,47.6A3.55,3.55,0,0,0,187.41,50c0,.87.82,1.84,3,1.84,1.79,0,3.82-.05,5.41-.05,3.09,0,7.05,1,7.05,5.79,0,5-5.94,9.76-12.36,9.76-5.46,0-8.4-3.19-8.5-6a3.82,3.82,0,0,1,1.21-2.75,45.21,45.21,0,0,1,4-3.48,6.29,6.29,0,0,1-3.62-2.6A4.36,4.36,0,0,1,183,50.4a10.26,10.26,0,0,0,4.44-3.33Zm2.32.48c-4.49,0-8.21-2.75-8.21-7.29,0-5.5,4.93-8.06,8.69-8.06a9.82,9.82,0,0,1,4.64,1.21,32.24,32.24,0,0,0,6.47-.73l.29.44a6,6,0,0,1-1.79,2.56c-.72,0-2.32-.2-3-.25a7.49,7.49,0,0,1,1.4,4.4C199.82,45.62,195.47,48.08,191.32,48.08Zm1.11,7.15c-2.36,0-3.43.29-4.3,1a5.56,5.56,0,0,0-2.31,4c0,2.66,2.75,4.64,6.47,4.64,4.58,0,7.19-2.37,7.19-5.46a3.61,3.61,0,0,0-2.12-3.52A12.83,12.83,0,0,0,192.43,55.23Zm-1.11-21c-2.17,0-4.1,2-4.1,5.8s1.93,6.47,4.58,6.47c2.13-.1,4-1.89,4-5.8S194,34.27,191.32,34.27Z"/></g></g></svg>