<svg xmlns="http://www.w3.org/2000/svg" viewBox="0 0 240 71"><defs><style>.cls-1{fill:#242424;}.cls-2{fill:#f3c44c;}.cls-3{fill:none;stroke:#000;stroke-miterlimit:10;stroke-width:2px;}</style></defs><title>activity icon</title><g id="Layer_2" data-name="Layer 2"><g id="top_bar" data-name="top bar"><rect class="cls-1" width="240" height="71" rx="15" ry="15"/><path class="cls-2" d="M78.94,42.39v-1.1c1.88-.27,1.88-.6,1.46-1.88-.3-.9-.77-2.24-1.22-3.43H73.37c-.33.92-.75,2.06-1.05,3-.62,1.88.09,2.12,2.45,2.33v1.1H67.4v-1.1c1.88-.24,2.36-.51,3.37-3L77,22.86l1.43-.27c1.91,5.19,3.94,10.5,5.88,15.48,1.1,2.77,1.37,3,3.31,3.22v1.1ZM76.32,28.14c-.87,2.14-1.7,4.14-2.45,6.32h4.74Z"/><path class="cls-2" d="M107.09,37.26a42,42,0,0,1-1.67,4.8,25.37,25.37,0,0,1-5.48.78c-8,0-11.33-5.16-11.33-9.9,0-6.17,4.71-10.35,11.86-10.35a31.45,31.45,0,0,1,5.64.72c.15,1.4.36,3.6.56,4.92l-1.19.21c-.62-2.33-1.52-3.43-3.1-4.06A7.45,7.45,0,0,0,99.79,24c-4.33,0-6.5,3.61-6.5,8.29,0,5.46,2.8,9.15,6.88,9.15,2.51,0,4.18-1.31,5.79-4.59Z"/><path class="cls-2" d="M126.3,28.17A9.17,9.17,0,0,0,125,25.24c-.53-.62-.77-.86-2.53-.86h-1.91v14c0,2.51.3,2.69,3,2.9v1.1h-9.89v-1.1c2.53-.21,2.8-.39,2.8-2.9v-14h-1.82c-1.67,0-2.15.27-2.71,1a11.33,11.33,0,0,0-1.23,2.84h-1.13c.21-2.18.42-4.51.48-5.94h.89c.45.69.81.75,1.7.75h11.93a2,2,0,0,0,1.73-.75h.86c0,1.26.15,3.88.3,5.82Z"/><path class="cls-2" d="M129.82,42.39v-1.1c2.26-.21,2.53-.39,2.53-2.9V27c0-2.5-.3-2.74-2.53-2.92V23H139v1.1c-2.23.21-2.53.42-2.53,2.92V38.39c0,2.48.27,2.66,2.53,2.9v1.1Z"/><path class="cls-2" d="M158.83,24.11c-2,.21-2.56.48-3.7,3.31-.92,2.3-4,9.69-6.2,15.3h-1.64c-.83-2.33-4.71-12.56-6-15.72-.93-2.23-1.31-2.71-3.25-2.89V23h9.09l0,1.1c-2.17.3-2.17.51-1.7,1.76.93,2.51,3.16,8.65,4.18,11.27,1.79-4.26,3.4-8.32,4.08-10.26s.54-2.5-2-2.77V23h7.1Z"/><path class="cls-2" d="M160.24,42.39v-1.1c2.26-.21,2.53-.39,2.53-2.9V27c0-2.5-.3-2.74-2.53-2.92V23h9.21v1.1c-2.24.21-2.53.42-2.53,2.92V38.39c0,2.48.26,2.66,2.53,2.9v1.1Z"/><path class="cls-2" d="M186.69,28.17a9.17,9.17,0,0,0-1.29-2.93c-.53-.62-.77-.86-2.53-.86H181v14c0,2.51.3,2.69,2.95,2.9v1.1H174v-1.1c2.54-.21,2.81-.39,2.81-2.9v-14H175c-1.67,0-2.15.27-2.72,1a11.75,11.75,0,0,0-1.22,2.84h-1.13c.21-2.18.42-4.51.48-5.94h.89c.45.69.8.75,1.7.75h11.93a2,2,0,0,0,1.73-.75h.86c0,1.26.15,3.88.3,5.82Z"/><path class="cls-2" d="M190.21,42.39v-1.1c2.26-.21,2.53-.39,2.53-2.9V27c0-2.5-.3-2.74-2.53-2.92V23h9.21v1.1c-2.24.21-2.53.42-2.53,2.92V38.39c0,2.48.26,2.66,2.53,2.9v1.1Z"/><path class="cls-2" d="M219.07,37.32c-.15.81-1,4.23-1.25,5.07H202.34V41.32c2.72-.27,2.9-.42,2.9-2.93V27c0-2.53-.36-2.71-2.39-2.89V23h9.69c3.13,0,4.17,0,4.59-.06,0,.54.18,3,.3,4.83l-1.16.15A7.51,7.51,0,0,0,215,25.16c-.54-.6-.93-.78-2.45-.78H210.6c-1.13,0-1.25.06-1.25,1.07v6.24h2.92c1.67,0,2-.45,2.42-2.57h1.16v6.65h-1.16c-.48-2.21-.72-2.56-2.45-2.56h-2.89v5.12c0,2.06.06,2.69,1.91,2.72h2.12c1.66,0,2.11-.21,2.77-1a13.37,13.37,0,0,0,1.82-3Z"/><path class="cls-2" d="M232.58,27.93c-.6-1.91-1.43-4.09-4.17-4.09a2.76,2.76,0,0,0-2.87,2.9c0,1.64,1.11,2.62,3.73,3.93,3.19,1.58,5.22,3.13,5.22,6.08,0,3.52-2.92,6.09-7.19,6.09a17.13,17.13,0,0,1-5-.93c-.18-.68-.68-3.78-.89-5.19l1.16-.26c.6,1.87,2.27,5.12,5.19,5.12a2.74,2.74,0,0,0,2.92-3c0-1.73-1.07-2.74-3.58-4.08C224,32.79,222,31.3,222,28.2s2.44-5.61,6.91-5.61a22,22,0,0,1,4.27.54c.12,1.1.32,2.65.56,4.53Z"/><rect class="cls-2" x="15.75" y="7.69" width="39.5" height="49.44"/><line class="cls-3" x1="19.18" y1="14.05" x2="51.16" y2="14.05"/><line class="cls-3" x1="18.88" y1="20.83" x2="50.86" y2="20.83"/><line class="cls-3" x1="19.3" y1="27.18" x2="51.27" y2="27.18"/><line class="cls-3" x1="19.59" y1="32.97" x2="51.57" y2="32.97"/><line class="cls-3" x1="20.06" y1="38.5" x2="52.04" y2="38.5"/><line class="cls-3" x1="19.83" y1="44.48" x2="51.8" y2="44.48"/><line class="cls-3" x1="19.88" y1="50.39" x2="51.86" y2="50.39"/></g></g></svg>