<svg xmlns="http://www.w3.org/2000/svg" viewBox="0 0 270.67 56.33"><defs><style>.cls-1{fill:#f3c44c;}</style></defs><title>add board games icon</title><g id="Layer_2" data-name="Layer 2"><g id="profile"><rect class="cls-1" width="270.67" height="56.33" rx="14" ry="14"/><path d="M32.93,35.28v-.87c2-.24,2.25-.55,1.82-1.72S33.73,30,33.08,28H26.44c-.5,1.39-1,2.59-1.39,3.85-.68,2-.25,2.25,2.28,2.55v.87H20.22v-.87c1.94-.24,2.43-.46,3.51-3.23L30.1,15l1-.18c1.94,5.26,4.07,11.08,6,16.4,1,2.68,1.27,2.93,3.45,3.17v.87ZM29.85,18.87c-1,2.65-2,5.45-3,7.88h5.75Z"/><path d="M56.41,34.51a31.75,31.75,0,0,0-4.77,1.14v-2c-.55.33-1.35.76-1.91,1.1a5.61,5.61,0,0,1-2.43.9c-2.46,0-5.72-2.47-5.72-6.78s3.75-7.47,8-7.47a6.41,6.41,0,0,1,2.09.33V17.21c0-2-.21-2-2.4-2.22v-.8a30.11,30.11,0,0,0,4.83-1V31.71c0,1.6.22,1.75,1.36,1.87l1,.07ZM51.64,24.16a3.87,3.87,0,0,0-3.23-1.56c-1.48,0-4.09,1-4.09,5.41,0,3.73,2.3,5.7,4.27,5.73a5.57,5.57,0,0,0,3-1.11Z"/><path d="M72.88,34.51a31.47,31.47,0,0,0-4.77,1.14v-2c-.56.33-1.36.76-1.91,1.1a5.61,5.61,0,0,1-2.43.9c-2.47,0-5.73-2.47-5.73-6.78s3.76-7.47,8-7.47a6.47,6.47,0,0,1,2.1.33V17.21c0-2-.22-2-2.4-2.22v-.8a30.35,30.35,0,0,0,4.83-1V31.71c0,1.6.21,1.75,1.35,1.87l1,.07ZM68.11,24.16a3.88,3.88,0,0,0-3.24-1.56c-1.47,0-4.09,1-4.09,5.41,0,3.73,2.31,5.7,4.28,5.73a5.57,5.57,0,0,0,3-1.11Z"/><path d="M92.42,24.44c3,.49,5.35,1.91,5.35,4.89a5.31,5.31,0,0,1-3,4.74,10.11,10.11,0,0,1-5.33,1.21H81.89v-.87c2.62-.24,2.77-.52,2.77-2.95V19.12c0-2.56-.28-2.77-2.77-3v-.86H90a8.2,8.2,0,0,1,4.74,1.08,4,4,0,0,1,1.81,3.45C96.51,22.69,94.14,24,92.42,24.44Zm-3.54-.37c3.38,0,4.77-1.35,4.77-3.88,0-2.15-1.32-3.81-4.28-3.81a3.16,3.16,0,0,0-1.72.31c-.25.18-.34.52-.34,1.5v5.88ZM87.31,31.4c0,2.21.52,2.77,2.71,2.77,2.4,0,4.74-1.29,4.74-4.53s-2.22-4.49-6-4.49H87.31Z"/><path d="M107.44,21.4a6.61,6.61,0,0,1,6.7,6.89c0,5-3.69,7.36-6.7,7.36a6.77,6.77,0,0,1-6.84-6.87A7,7,0,0,1,107.44,21.4Zm-.37,1c-1.88,0-3.57,1.82-3.57,5.39,0,3.91,1.72,6.74,4.24,6.74,1.91,0,3.51-1.39,3.51-5.6C111.25,25.37,109.77,22.44,107.07,22.44Z"/><path d="M126.21,35.65a2.27,2.27,0,0,1-1.45-.59,2.93,2.93,0,0,1-.74-1.39c-1.23.84-2.74,2-3.69,2a3.77,3.77,0,0,1-3.75-3.79c0-1.51.83-2.49,2.52-3.08a23.82,23.82,0,0,0,4.86-2v-.62c0-2.18-1.11-3.44-2.71-3.44a1.77,1.77,0,0,0-1.44.71,6.31,6.31,0,0,0-.83,2,.87.87,0,0,1-.9.71,1.48,1.48,0,0,1-1.35-1.36c0-.43.4-.8,1-1.23a12.61,12.61,0,0,1,4.43-2.15,4,4,0,0,1,4.15,4.4v5.94c0,1.41.52,1.84,1.08,1.84a2.39,2.39,0,0,0,1.11-.34l.3.87ZM124,27.86c-.67.34-2.15,1-2.86,1.29-1.17.52-1.88,1.11-1.88,2.25a2.24,2.24,0,0,0,2.22,2.37A4.1,4.1,0,0,0,124,32.66Z"/><path d="M137.2,35.28h-7.08v-.87c1.94-.18,2.12-.34,2.12-2.34v-6.4c0-2-.12-2.12-1.91-2.34v-.76a17.08,17.08,0,0,0,4.34-1.27v3.39c1.08-1.6,2.37-3.29,3.91-3.29a1.59,1.59,0,0,1,1.79,1.47,2.09,2.09,0,0,1-1.05,1.7.61.61,0,0,1-.8-.07,1.93,1.93,0,0,0-1.39-.76c-.64,0-1.78,1-2.46,2.52V32c0,2,.16,2.19,2.53,2.37Z"/><path d="M156.28,34.51a31.47,31.47,0,0,0-4.77,1.14v-2c-.56.33-1.36.76-1.91,1.1a5.61,5.61,0,0,1-2.43.9c-2.47,0-5.73-2.47-5.73-6.78s3.76-7.47,8-7.47a6.47,6.47,0,0,1,2.1.33V17.21c0-2-.22-2-2.4-2.22v-.8a30.35,30.35,0,0,0,4.83-1V31.71c0,1.6.21,1.75,1.35,1.87l1,.07Zm-4.77-10.35a3.88,3.88,0,0,0-3.24-1.56c-1.47,0-4.09,1-4.09,5.41,0,3.73,2.31,5.7,4.28,5.73a5.57,5.57,0,0,0,3-1.11Z"/><path d="M185.39,26.87c-1.91.25-2,.43-2,2.25v2.59a17.32,17.32,0,0,0,.18,2.92,30.54,30.54,0,0,1-6.89,1.11c-6.86,0-11.33-4.34-11.33-10.53,0-6.68,5.3-10.37,11.45-10.37a38.44,38.44,0,0,1,6.4.77c.07,1.14.22,3.05.47,5l-.93.19c-.74-2.62-1.66-3.82-3.6-4.46a9.08,9.08,0,0,0-2.77-.34c-4.71,0-7.82,3.05-7.82,8.86,0,4.93,2.5,9.76,8.53,9.76a6.34,6.34,0,0,0,2.62-.49c.64-.37,1-.77,1-2V29.58c0-2.25-.25-2.49-3.2-2.71V26h7.91Z"/><path d="M197.42,35.65a2.22,2.22,0,0,1-1.44-.59,2.85,2.85,0,0,1-.74-1.39c-1.23.84-2.74,2-3.7,2a3.78,3.78,0,0,1-3.75-3.79c0-1.51.83-2.49,2.52-3.08a24.21,24.21,0,0,0,4.87-2v-.62c0-2.18-1.11-3.44-2.71-3.44a1.79,1.79,0,0,0-1.45.71,6.55,6.55,0,0,0-.83,2,.86.86,0,0,1-.89.71,1.49,1.49,0,0,1-1.36-1.36c0-.43.4-.8,1-1.23a12.7,12.7,0,0,1,4.43-2.15,4,4,0,0,1,4.16,4.4v5.94c0,1.41.52,1.84,1.07,1.84a2.39,2.39,0,0,0,1.11-.34l.31.87Zm-2.24-7.79c-.68.34-2.16,1-2.87,1.29-1.17.52-1.87,1.11-1.87,2.25a2.24,2.24,0,0,0,2.21,2.37,4.15,4.15,0,0,0,2.53-1.11Z"/><path d="M218.23,35.28v-.87c1.81-.18,2-.3,2-2.46V26.81c0-2.18-.74-3.57-2.65-3.57a5.6,5.6,0,0,0-3.41,1.6,13,13,0,0,1,.09,1.32v6c0,1.93.27,2.09,2,2.27v.87h-6.59v-.87c1.91-.18,2.19-.3,2.19-2.34V26.78c0-2.28-.71-3.54-2.59-3.54a5.92,5.92,0,0,0-3.39,1.6v7.23c0,2,.22,2.16,2,2.34v.87h-6.61v-.87c2-.18,2.21-.3,2.21-2.34V25.7c0-2-.12-2.09-1.84-2.4v-.77a16.11,16.11,0,0,0,4.27-1.23v2.5a20.72,20.72,0,0,1,2.28-1.6,4.14,4.14,0,0,1,2.43-.8A3.6,3.6,0,0,1,214,23.92c.86-.68,1.66-1.2,2.43-1.72a4.6,4.6,0,0,1,2.43-.8c2.4,0,3.88,1.72,3.88,4.74v5.93c0,2.07.18,2.16,1.94,2.34v.87Z"/><path d="M237.77,32.66c-2,2.46-4.13,3-5.11,3-3.75,0-6-3.08-6-6.62a7.92,7.92,0,0,1,2-5.39,6.31,6.31,0,0,1,4.58-2.24,4.79,4.79,0,0,1,4.71,4.76c0,.62-.12.9-.61,1s-4.56.4-8.22.52c-.09,4.13,2.43,5.82,4.62,5.82A5.19,5.19,0,0,0,237.28,32Zm-5.29-10.09c-1.42,0-2.81,1.32-3.24,3.81,1.73,0,3.45,0,5.27-.09.55,0,.74-.15.74-.62A2.86,2.86,0,0,0,232.48,22.57Z"/><path d="M248.08,25.43c-.56-1.79-1.42-3-3.3-3a1.92,1.92,0,0,0-2,2c0,1.36,1,2,2.68,2.74,2.53,1.11,4,2.09,4,4.22,0,2.83-2.58,4.28-5,4.28a8,8,0,0,1-3.67-.9c-.15-.89-.43-2.64-.55-3.66l.89-.15c.56,2,1.63,3.66,3.79,3.66a2.1,2.1,0,0,0,2.21-2.09c0-1.39-.83-2.13-2.52-2.87-2-.92-4-1.94-4-4.27s2-4,4.86-4a16,16,0,0,1,3,.4c.09.73.31,2.67.46,3.41Z"/></g></g></svg>