<svg xmlns="http://www.w3.org/2000/svg" viewBox="0 0 179 57"><defs><style>.cls-1{fill:#f3c44c;}</style></defs><title>cancel icon</title><g id="Layer_2" data-name="Layer 2"><g id="profile"><rect class="cls-1" width="179" height="57" rx="14" ry="14"/><path d="M62.65,34.91A43.53,43.53,0,0,1,60.79,40a33.8,33.8,0,0,1-6.21.81c-8.1,0-12.24-5.59-12.24-11.32,0-7.26,5.36-11.7,13-11.7a36.85,36.85,0,0,1,6.24.78c.14,1.53.37,3.59.64,5.29l-1.05.24c-.67-2.28-1.56-3.77-3.29-4.48a8.38,8.38,0,0,0-3.39-.58c-5.69,0-8.64,4.55-8.64,9.74,0,6.54,3.76,10.74,8.92,10.74,3.45,0,5.12-1.59,6.84-5Z"/><path d="M76.38,40.74a2.51,2.51,0,0,1-1.59-.64A3.2,3.2,0,0,1,74,38.57c-1.36.92-3,2.17-4.07,2.17a4.16,4.16,0,0,1-4.14-4.17c0-1.66.92-2.75,2.78-3.39A26.73,26.73,0,0,0,73.91,31V30.3c0-2.41-1.22-3.8-3-3.8a2,2,0,0,0-1.6.78,7.19,7.19,0,0,0-.91,2.2.94.94,0,0,1-1,.78,1.63,1.63,0,0,1-1.49-1.49c0-.47.44-.88,1.12-1.35A14.13,14.13,0,0,1,71.94,25a4.46,4.46,0,0,1,4.58,4.85v6.54c0,1.56.58,2,1.19,2a2.78,2.78,0,0,0,1.22-.37l.34.94Zm-2.47-8.58c-.75.38-2.37,1.09-3.15,1.43-1.29.57-2.07,1.22-2.07,2.47a2.46,2.46,0,0,0,2.44,2.61,4.5,4.5,0,0,0,2.78-1.22Z"/><path d="M90.42,40.33v-.95c2-.2,2.17-.44,2.17-2.74V31c0-2.37-.84-4-3.08-4a5.91,5.91,0,0,0-3.76,1.76v7.93c0,2.34.2,2.41,2.2,2.61v.95H80.63v-.95c2.23-.23,2.44-.37,2.44-2.61v-7c0-2.21-.24-2.31-2.07-2.61V26.3a19.49,19.49,0,0,0,4.75-1.36v2.68c.67-.48,1.42-1,2.3-1.56a5.21,5.21,0,0,1,2.82-1c2.71,0,4.4,2,4.4,5.29v6.44c0,2.31.21,2.41,2.17,2.61v.95Z"/><path d="M112.26,37.28c-1.49,2-3.76,3.46-5.8,3.46a6.84,6.84,0,0,1-6.85-7.12A8.07,8.07,0,0,1,103,27,9,9,0,0,1,108.19,25a5.05,5.05,0,0,1,3.16.92,1.07,1.07,0,0,1,.54,1,1.72,1.72,0,0,1-1.22,1.53c-.17,0-.31-.07-.65-.34a5,5,0,0,0-3.42-1.43c-2.24,0-4.21,1.9-4.21,5.43,0,4.71,3.19,6.27,5.16,6.27a5.41,5.41,0,0,0,4.13-1.86Z"/><path d="M126.4,37.45c-2.17,2.71-4.54,3.29-5.63,3.29-4.13,0-6.64-3.39-6.64-7.29a8.68,8.68,0,0,1,2.2-5.93,6.93,6.93,0,0,1,5-2.48,5.29,5.29,0,0,1,5.19,5.26c0,.68-.14,1-.68,1.12s-5,.44-9,.57c-.1,4.55,2.68,6.41,5.09,6.41a5.75,5.75,0,0,0,3.93-1.73Zm-5.83-11.12c-1.56,0-3.09,1.46-3.56,4.2,1.9,0,3.8,0,5.8-.1.61,0,.81-.17.81-.68A3.15,3.15,0,0,0,120.57,26.33Z"/><path d="M128.1,40.33v-.95c2.17-.2,2.44-.37,2.44-2.61V20.53c0-2.07-.17-2.27-2.34-2.54v-.88a25,25,0,0,0,5-1.15V36.77c0,2.24.2,2.41,2.41,2.61v.95Z"/></g></g></svg>