<svg xmlns="http://www.w3.org/2000/svg" viewBox="0 0 220 57"><defs><style>.cls-1{fill:#f3c44c;}</style></defs><title>change photo icon</title><g id="Layer_2" data-name="Layer 2"><g id="profile"><rect class="cls-1" width="220" height="57" rx="14" ry="14"/><path d="M33.65,34.91A41.8,41.8,0,0,1,31.79,40a33.8,33.8,0,0,1-6.21.81c-8.1,0-12.24-5.59-12.24-11.32,0-7.26,5.36-11.7,13-11.7a36.85,36.85,0,0,1,6.24.78c.14,1.53.37,3.59.64,5.29l-1.05.24c-.67-2.28-1.56-3.77-3.29-4.48a8.38,8.38,0,0,0-3.39-.58c-5.69,0-8.64,4.55-8.64,9.74,0,6.54,3.76,10.74,8.92,10.74,3.45,0,5.12-1.59,6.84-5Z"/><path d="M45.86,40.33v-.95c2-.2,2.24-.37,2.24-2.61V31.21C48.1,28.4,47,27,44.74,27a4.82,4.82,0,0,0-3.59,1.76v8c0,2.21.27,2.41,2.3,2.61v.95H36.06v-.95c2-.17,2.41-.34,2.41-2.61V20.43c0-1.8-.1-2.24-2.38-2.44v-.88A21.28,21.28,0,0,0,41.15,16V27.52A7.65,7.65,0,0,1,46.06,25c2.78,0,4.72,1.73,4.72,5.8v6c0,2.23.27,2.4,2.23,2.57v.95Z"/><path d="M65.73,40.74a2.48,2.48,0,0,1-1.59-.64,3.22,3.22,0,0,1-.82-1.53c-1.35.92-3,2.17-4.07,2.17a4.16,4.16,0,0,1-4.13-4.17c0-1.66.91-2.75,2.78-3.39A26.73,26.73,0,0,0,63.26,31V30.3c0-2.41-1.23-3.8-3-3.8a2,2,0,0,0-1.59.78,7.42,7.42,0,0,0-.92,2.2.93.93,0,0,1-1,.78,1.63,1.63,0,0,1-1.49-1.49c0-.47.44-.88,1.12-1.35A14.13,14.13,0,0,1,61.29,25a4.46,4.46,0,0,1,4.58,4.85v6.54c0,1.56.57,2,1.18,2a2.71,2.71,0,0,0,1.22-.37l.34.94Zm-2.47-8.58c-.75.38-2.38,1.09-3.16,1.43-1.29.57-2.07,1.22-2.07,2.47a2.47,2.47,0,0,0,2.45,2.61,4.5,4.5,0,0,0,2.78-1.22Z"/><path d="M79.77,40.33v-.95c2-.2,2.17-.44,2.17-2.74V31c0-2.37-.85-4-3.09-4a5.91,5.91,0,0,0-3.76,1.76v7.93c0,2.34.2,2.41,2.2,2.61v.95H70v-.95c2.24-.23,2.44-.37,2.44-2.61v-7c0-2.21-.24-2.31-2.07-2.61V26.3a19.37,19.37,0,0,0,4.75-1.36v2.68c.68-.48,1.42-1,2.31-1.56a5.18,5.18,0,0,1,2.81-1c2.71,0,4.41,2,4.41,5.29v6.44c0,2.31.2,2.41,2.17,2.61v.95Z"/><path d="M93.27,35.38a2.47,2.47,0,0,0-1.12,1.7c0,.61.57,1.29,2.1,1.29,1.25,0,2.68,0,3.8,0,2.17,0,5,.71,5,4.07,0,3.53-4.17,6.85-8.68,6.85-3.83,0-5.9-2.24-6-4.24a2.65,2.65,0,0,1,.85-1.93A32.34,32.34,0,0,1,92,40.64a4.48,4.48,0,0,1-2.55-1.83,3.13,3.13,0,0,1-.4-1.46A7.11,7.11,0,0,0,92.15,35Zm1.62.34c-3.15,0-5.76-1.93-5.76-5.12,0-3.86,3.46-5.66,6.1-5.66a7,7,0,0,1,3.26.85,22.55,22.55,0,0,0,4.54-.51l.2.3a4.1,4.1,0,0,1-1.25,1.8c-.51,0-1.63-.13-2.1-.17a5.29,5.29,0,0,1,1,3.09C100.86,34,97.81,35.72,94.89,35.72Zm.78,5c-1.66,0-2.4.2-3,.71A3.92,3.92,0,0,0,91,44.23c0,1.87,1.93,3.26,4.54,3.26,3.22,0,5.05-1.66,5.05-3.83a2.55,2.55,0,0,0-1.49-2.48A9.18,9.18,0,0,0,95.67,40.74ZM94.89,26C93.37,26,92,27.42,92,30.09s1.36,4.55,3.22,4.55c1.49-.07,2.82-1.33,2.82-4.07S96.79,26,94.89,26Z"/><path d="M116.53,37.45c-2.17,2.71-4.55,3.29-5.63,3.29-4.14,0-6.65-3.39-6.65-7.29a8.69,8.69,0,0,1,2.21-5.93A6.93,6.93,0,0,1,111.51,25a5.29,5.29,0,0,1,5.19,5.26c0,.68-.14,1-.68,1.12s-5,.44-9,.57c-.11,4.55,2.67,6.41,5.08,6.41A5.73,5.73,0,0,0,116,36.67Zm-5.84-11.12c-1.55,0-3.08,1.46-3.56,4.2,1.9,0,3.8,0,5.8-.1.61,0,.82-.17.82-.68A3.16,3.16,0,0,0,110.69,26.33Z"/><path d="M135.79,18.29a9.64,9.64,0,0,1,5.73,1.46,5.75,5.75,0,0,1,2.23,4.82c0,4.95-4.23,7-7.46,7a6.35,6.35,0,0,1-.91-.07L133,30.84v5.29c0,2.85.24,2.91,3.36,3.25v.95H127v-.95c2.91-.3,3-.5,3-3.32V22.6c0-3-.37-3.08-3-3.36v-.95ZM133,29.65a6.06,6.06,0,0,0,2.48.44c2.27,0,5.08-1.15,5.08-5.42,0-3.73-2.44-5.22-5.29-5.22a3.11,3.11,0,0,0-1.9.4c-.27.24-.37.65-.37,1.56Z"/><path d="M155.39,40.33v-.95c2-.2,2.23-.37,2.23-2.61V31.21c0-2.81-1.08-4.24-3.35-4.2a4.84,4.84,0,0,0-3.6,1.76v8c0,2.21.27,2.41,2.31,2.61v.95h-7.39v-.95c2-.17,2.4-.34,2.4-2.61V20.43c0-1.8-.1-2.24-2.37-2.44v-.88a21.19,21.19,0,0,0,5-1.15V27.52A7.67,7.67,0,0,1,155.59,25c2.78,0,4.71,1.73,4.71,5.8v6c0,2.23.27,2.4,2.24,2.57v.95Z"/><path d="M172.17,25a7.29,7.29,0,0,1,7.39,7.6c0,5.49-4.07,8.1-7.39,8.1a7.44,7.44,0,0,1-7.53-7.56A7.77,7.77,0,0,1,172.17,25Zm-.41,1.15c-2.06,0-3.93,2-3.93,5.94,0,4.3,1.9,7.42,4.68,7.42,2.1,0,3.87-1.52,3.87-6.17C176.38,29.42,174.75,26.19,171.76,26.19Z"/><path d="M188.62,40.3a3.51,3.51,0,0,1-1.46.44c-2.17,0-3.32-1.32-3.32-4V26.84H181.5l-.14-.41.92-1h1.56V22.6c.64-.68,1.62-1.56,2.27-2.24l.51.07c-.07,1.42-.1,3.39-.1,5h3.86a1.06,1.06,0,0,1-.2,1.39h-3.66v8.68c0,2.74,1.08,3.25,2,3.25a4.77,4.77,0,0,0,2.07-.54l.3.88Z"/><path d="M199.54,25a7.29,7.29,0,0,1,7.39,7.6c0,5.49-4.07,8.1-7.39,8.1A7.44,7.44,0,0,1,192,33.18,7.76,7.76,0,0,1,199.54,25Zm-.41,1.15c-2.07,0-3.93,2-3.93,5.94,0,4.3,1.89,7.42,4.68,7.42,2.1,0,3.86-1.52,3.86-6.17C203.74,29.42,202.11,26.19,199.13,26.19Z"/></g></g></svg>