<svg xmlns="http://www.w3.org/2000/svg" viewBox="0 0 220 57"><defs><style>.cls-1{fill:#f3c44c;}</style></defs><title>edit icon</title><g id="Layer_2" data-name="Layer 2"><g id="profile"><rect class="cls-1" width="220" height="57" rx="14" ry="14"/><path d="M95.4,34.37c-.31,1.35-1.71,6.66-2.22,8.21H68.09V41.14c4.8-.36,5.16-.83,5.16-5.06V15.69c0-4.6-.56-4.86-4.44-5.22V9h15.8c4.85,0,6.86,0,7.48-.11.06,1.3.26,5.17.47,7.9L91,17.08a17.33,17.33,0,0,0-1.55-3.92c-.83-1.7-2-2.07-5.11-2.07h-4.9c-1.6,0-1.71.16-1.71,1.66v11.4h5.73c3.88,0,4.13-.77,4.75-4.28h1.6V30.5h-1.6c-.67-3.71-1.08-4.23-4.8-4.23H77.74V36.54c0,3.62,1.14,3.93,3.72,4h4.8c3.15,0,3.67-.47,4.8-1.81A21.94,21.94,0,0,0,93.85,34Z" transform="translate(0 -2.16)"/><path d="M123.53,41.29a55.3,55.3,0,0,0-8,1.91V39.85c-.93.56-2.28,1.29-3.21,1.85a9.34,9.34,0,0,1-4.07,1.5c-4.13,0-9.6-4.13-9.6-11.36S104.94,19.3,112,19.3a10.4,10.4,0,0,1,3.51.57V12.28c0-3.3-.37-3.41-4-3.72V7.22a51.44,51.44,0,0,0,8.1-1.75V36.59c0,2.69.36,2.95,2.28,3.15l1.65.11Zm-8-17.34a6.47,6.47,0,0,0-5.42-2.64c-2.48,0-6.87,1.66-6.87,9.09,0,6.25,3.87,9.55,7.18,9.6a9.3,9.3,0,0,0,5.11-1.86Z" transform="translate(0 -2.16)"/><path d="M126,42.58V41.14c3.25-.31,3.61-.57,3.61-4.08V26.42c0-3.2-.15-3.4-3.25-3.92V21.26a33.57,33.57,0,0,0,7.33-2.06V37.06c0,3.51.36,3.77,3.72,4.08v1.44Zm5.37-28.44a2.83,2.83,0,0,1-2.74-2.74,2.79,2.79,0,0,1,2.79-2.84A2.7,2.7,0,0,1,134,11.4,2.75,2.75,0,0,1,131.32,14.14Z" transform="translate(0 -2.16)"/><path d="M149.85,42.53a5.16,5.16,0,0,1-2.22.67c-3.31,0-5.06-2-5.06-6.14V22H139l-.21-.62,1.4-1.5h2.37V15.58c1-1,2.48-2.37,3.46-3.4l.77.1c-.1,2.17-.15,5.16-.15,7.64h5.88a1.61,1.61,0,0,1-.31,2.12h-5.57V35.25c0,4.18,1.65,5,3,5a7.39,7.39,0,0,0,3.15-.83l.47,1.34Z" transform="translate(0 -2.16)"/></g></g></svg>