<svg xmlns="http://www.w3.org/2000/svg" viewBox="0 0 232.18 65.2"><defs><style>.cls-1{fill:#f3c44c;}</style></defs><title>mainpage logo</title><g id="Layer_2" data-name="Layer 2"><g id="logo"><path class="cls-1" d="M47.43,57.14c-.53,2.68-3.13,11.7-4,14.39H3.12V69.1c7.89-.78,8.58-1.21,8.58-8.58V26.1c0-7.37-.86-7.81-7.8-8.5V15.17H27.14V17.6c-6.94.69-7.89,1-7.89,8.5V61.38c0,5.29.69,6.51,5.63,6.59.09.09,6.33.09,6.85.09,4.42,0,5.72-.52,7.72-2.69a29.22,29.22,0,0,0,5.29-8.93Z" transform="translate(0 -15)"/><path class="cls-1" d="M98.14,57.74c-.52,2.26-2.86,11.19-3.72,13.79H52.28V69.1c8.06-.61,8.67-1.39,8.67-8.5V26.36c0-7.72-1-8.15-7.46-8.76V15.17H80c8.15,0,11.54-.08,12.58-.17.08,2.17.43,8.67.78,13.26l-2.61.44a28.54,28.54,0,0,0-2.6-6.59c-1.38-2.86-3.38-3.47-8.58-3.47H71.35c-2.68,0-2.86.26-2.86,2.78V40.58h9.63c6.5,0,6.93-1.3,8-7.2h2.69V51.24H86.09C85,45,84.27,44.13,78,44.13H68.49V61.38c0,6.07,1.91,6.59,6.25,6.68H82.8c5.29,0,6.15-.78,8.06-3,1.65-1.83,3.47-5.38,4.68-8Z" transform="translate(0 -15)"/><path class="cls-1" d="M164.56,17.6c-7.2.69-7.89,1.13-7.89,8.41V60.78c0,7.28.78,7.54,7.89,8.32v2.43H141.32V69.1c7.2-.87,7.89-1,7.89-8.32V43.44H119.56V60.78c0,7.19.69,7.45,7.8,8.32v2.43H104.21V69.1c7-.78,7.81-1,7.81-8.32V26c0-7.28-.78-7.72-7.81-8.41V15.17h23.15V17.6c-6.93.61-7.8,1.21-7.8,8.41V39.8h29.65V26c0-7.2-1-7.8-7.89-8.41V15.17h23.24Z" transform="translate(0 -15)"/><path class="cls-1" d="M231.23,17.6c-5.46.35-7.46,1.73-7.63,5.72-.09,2-.26,5.64-.26,13.61V46.3c0,8.84-1,15.6-6.07,20.89-4.08,4.25-10,5.55-16,5.55-5,0-10.41-1-14.22-4-5.2-4-7.72-10-7.72-20.11V26.53c0-7.8-.69-8.32-7.63-8.93V15.17h22.8V17.6c-6.93.43-7.63,1.13-7.63,8.93V48.21c0,12.65,6,19.59,16.39,19.59,12.31,0,16.21-7.63,16.21-22V36.93c0-8-.26-11.27-.43-13.61-.26-3.9-2.25-5.37-8.67-5.72V15.17h20.81Z" transform="translate(0 -15)"/><path class="cls-1" d="M0,80.2V75.86H232.18V80.2Z" transform="translate(0 -15)"/></g></g></svg>