<svg xmlns="http://www.w3.org/2000/svg" viewBox="0 0 240 71"><defs><style>.cls-1{fill:#242424;}.cls-2{fill:#f3c44c;}.cls-3{fill:#ffd04d;}</style></defs><title>post icon</title><g id="Layer_2" data-name="Layer 2"><g id="top_bar" data-name="top bar"><rect class="cls-1" width="240" height="71" rx="15" ry="15"/><path class="cls-2" d="M122.34,23c2.36,0,4.24.33,5.46,1.19A5.19,5.19,0,0,1,130,28.7c0,4.33-3.67,6.15-6.86,6.18a7.52,7.52,0,0,1-.9-.06l-1.73-.45v4.05c0,2.51.21,2.63,2.81,2.87v1.1h-9.48v-1.1c2.23-.27,2.53-.36,2.53-2.87V27c0-2.5-.3-2.77-2.53-2.92V23Zm-1.79,10.11a3.86,3.86,0,0,0,1.59.29c1.37,0,3.6-.8,3.6-4.74,0-3.34-1.82-4.44-3.75-4.44a1.83,1.83,0,0,0-1.17.3,1.14,1.14,0,0,0-.27.92Z"/><path class="cls-2" d="M143.55,22.59a9.72,9.72,0,0,1,10,9.9c0,6.35-4.53,10.35-10.16,10.35a9.92,9.92,0,0,1-10.29-10.11A10,10,0,0,1,143.55,22.59Zm-.45,1.31c-3,0-5.28,3-5.28,8.26,0,5,2,9.36,6,9.36,2.84,0,5-2.74,5-8.2C148.88,27.42,146.56,23.9,143.1,23.9Z"/><path class="cls-2" d="M167.64,27.93c-.6-1.91-1.43-4.09-4.17-4.09a2.76,2.76,0,0,0-2.87,2.9c0,1.64,1.11,2.62,3.73,3.93,3.19,1.58,5.22,3.13,5.22,6.08,0,3.52-2.92,6.09-7.19,6.09a17.26,17.26,0,0,1-5-.93c-.17-.68-.68-3.78-.89-5.19l1.16-.26c.6,1.87,2.27,5.12,5.19,5.12a2.74,2.74,0,0,0,2.92-3c0-1.73-1.07-2.74-3.58-4.08-3.1-1.67-5.12-3.16-5.12-6.26s2.44-5.61,6.91-5.61a22,22,0,0,1,4.27.54c.12,1.1.33,2.65.56,4.53Z"/><path class="cls-2" d="M188.25,28.17A9.56,9.56,0,0,0,187,25.24c-.54-.62-.78-.86-2.54-.86h-1.91v14c0,2.51.3,2.69,2.95,2.9v1.1h-9.89v-1.1c2.53-.21,2.8-.39,2.8-2.9v-14h-1.82c-1.67,0-2.15.27-2.71,1a11.33,11.33,0,0,0-1.23,2.84h-1.13c.21-2.18.42-4.51.48-5.94h.89c.45.69.81.75,1.7.75h11.93a2,2,0,0,0,1.73-.75h.86c0,1.26.15,3.88.3,5.82Z"/><rect class="cls-3" x="31.89" y="10.67" width="21.84" height="35.8" rx="2.78" ry="2.78"/><rect class="cls-3" x="31.89" y="24.62" width="21.84" height="35.8" rx="2.78" ry="2.78"/><rect class="cls-3" x="32.01" y="24.62" width="35.8" height="21.84" rx="2.78" ry="2.78"/><rect class="cls-3" x="17.81" y="24.62" width="35.8" height="21.84" rx="2.78" ry="2.78"/></g></g></svg>