<svg xmlns="http://www.w3.org/2000/svg" viewBox="0 0 240 71"><defs><style>.cls-1{fill:#242424;}.cls-2{fill:#ffd04d;}.cls-3{fill:#f3c44c;}</style></defs><title>profile icon</title><g id="Layer_2" data-name="Layer 2"><g id="top_bar" data-name="top bar"><rect class="cls-1" width="240" height="71" rx="15" ry="15"/><circle class="cls-2" cx="41.11" cy="22.89" r="9.89"/><path class="cls-2" d="M24.78,57.4H58L47.3,38.54c-3-5.21-8.74-5.23-11.71,0Z"/><path class="cls-3" d="M103,23c2.35,0,4.23.33,5.45,1.19a5.18,5.18,0,0,1,2.24,4.5c0,4.33-3.67,6.15-6.86,6.18a7.34,7.34,0,0,1-.89-.06l-1.73-.45v4.05c0,2.51.21,2.63,2.8,2.87v1.1H94.48v-1.1C96.71,41,97,40.93,97,38.42V27c0-2.5-.3-2.77-2.53-2.92V23Zm-1.79,10.11a4,4,0,0,0,1.58.29c1.37,0,3.61-.8,3.61-4.74,0-3.34-1.82-4.44-3.76-4.44a1.79,1.79,0,0,0-1.16.3,1.14,1.14,0,0,0-.27.92Z"/><path class="cls-3" d="M131.78,42.57c-.18,0-.53,0-.89,0-3.79-.18-4.89-1-5.79-2.24A53.39,53.39,0,0,1,122,35.05a1.68,1.68,0,0,0-1.82-1l-.59,0v4.35c0,2.42.3,2.63,2.53,2.9v1.1H113v-1.1c2.26-.24,2.53-.48,2.53-2.9V27c0-2.35-.3-2.68-2.53-2.86V23h8.64c2.66,0,4.18.3,5.4,1.13a4.57,4.57,0,0,1,2,4c0,2.65-1.76,4-3.73,4.83.45.89,1.61,2.83,2.51,4.2a23.09,23.09,0,0,0,2.26,3.1A3.59,3.59,0,0,0,132,41.55Zm-11.36-9.75a4.35,4.35,0,0,0,2.92-.78,4.21,4.21,0,0,0,1.41-3.49c0-3.16-1.82-4.29-3.49-4.29-.81,0-1.2.12-1.38.3s-.26.54-.26,1.13v7.13Z"/><path class="cls-3" d="M143.5,22.59a9.72,9.72,0,0,1,10,9.9c0,6.35-4.53,10.35-10.17,10.35a9.92,9.92,0,0,1-10.28-10.11A10,10,0,0,1,143.5,22.59Zm-.44,1.31c-3.05,0-5.28,3-5.28,8.26,0,5,2,9.36,6,9.36,2.83,0,5-2.74,5-8.2C148.84,27.42,146.51,23.9,143.06,23.9Z"/><path class="cls-3" d="M170,28a7.86,7.86,0,0,0-1.31-2.8c-.62-.66-1-.78-2.44-.78h-2.24c-1,0-1.13.06-1.13,1.07V32h3.19c1.76,0,2-.44,2.44-2.53h1.11V36h-1.14c-.32-2-.77-2.54-2.41-2.54h-3.19v4.66c0,2.74.18,3,2.86,3.13v1.1h-9.54v-1.1c2.26-.21,2.53-.39,2.53-3.13v-11c0-2.65-.27-2.89-2.53-3.07V23h10.11c2.56,0,4.05,0,4.53-.06,0,.51.18,3.07.33,4.83Z"/><path class="cls-3" d="M173.5,42.39v-1.1c2.27-.21,2.54-.39,2.54-2.9V27c0-2.5-.3-2.74-2.54-2.92V23h9.22v1.1c-2.24.21-2.54.42-2.54,2.92V38.39c0,2.48.27,2.66,2.54,2.9v1.1Z"/><path class="cls-3" d="M201.8,37.14c-.24,1.28-1.07,4.44-1.34,5.25H185.67v-1.1c2.62-.18,2.86-.39,2.86-2.9V27c0-2.5-.29-2.74-2.53-2.92V23h9.3v1.1c-2.32.21-2.62.42-2.62,2.92V38.6c0,1.64.06,2.39,1.7,2.42.06,0,1.43,0,1.55,0a3,3,0,0,0,2.86-1.17,12.18,12.18,0,0,0,1.88-3.1Z"/><path class="cls-3" d="M219.87,37.32c-.15.81-1,4.23-1.25,5.07H203.15V41.32c2.71-.27,2.89-.42,2.89-2.93V27c0-2.53-.36-2.71-2.39-2.89V23h9.69c3.13,0,4.18,0,4.6-.06,0,.54.17,3,.29,4.83l-1.16.15a7.51,7.51,0,0,0-1.28-2.77c-.54-.6-.93-.78-2.45-.78h-1.93c-1.14,0-1.26.06-1.26,1.07v6.23h2.93c1.67,0,2-.44,2.41-2.56h1.16v6.65h-1.16c-.48-2.21-.71-2.56-2.45-2.56h-2.89v5.12c0,2.06.06,2.69,1.91,2.72h2.12c1.67,0,2.11-.21,2.77-1a13,13,0,0,0,1.82-3Z"/></g></g></svg>