<svg xmlns="http://www.w3.org/2000/svg" viewBox="0 0 155.31 58.32"><defs><style>.cls-1{fill:#283337;}.cls-2{fill:#f3c44c;}</style></defs><title>signup icon</title><g id="Layer_2" data-name="Layer 2"><g id="Layer_4" data-name="Layer 4"><rect class="cls-1" width="155.31" height="58.32" rx="5.88" ry="5.88"/><path class="cls-2" d="M41.65,19.85c-.6-2.31-1.72-4.62-4.8-4.62A3.53,3.53,0,0,0,33.07,19c0,2.52,1.68,3.75,4.45,5.15s6,3,6,7c0,3.71-3.15,6.65-7.67,6.65a17.77,17.77,0,0,1-5.39-1.08c-.24-.88-.7-3.75-.95-5.39L30.62,31c.59,2.17,2.13,5.46,5.74,5.46a3.87,3.87,0,0,0,4.2-4.17c0-2.62-1.82-3.81-4.51-5.25-2.28-1.22-5.78-2.94-5.78-6.93,0-3.36,2.48-6.12,7.11-6.12a32.11,32.11,0,0,1,4.79.59c.14,1.26.28,2.77.56,5Z"/><path class="cls-2" d="M46.55,37.25v-1c2.2-.21,2.45-.39,2.45-2.77V26.29c0-2.17-.11-2.31-2.21-2.66v-.84a22.56,22.56,0,0,0,5-1.4V33.5c0,2.38.25,2.56,2.52,2.77v1ZM50.19,18a1.89,1.89,0,0,1,0-3.78A1.84,1.84,0,0,1,52,16.11,1.86,1.86,0,0,1,50.19,18Z"/><path class="cls-2" d="M60.69,32.14a2.56,2.56,0,0,0-1.16,1.75c0,.63.6,1.33,2.17,1.33,1.3,0,2.77,0,3.93,0,2.24,0,5.11.74,5.11,4.2,0,3.64-4.31,7.07-9,7.07-4,0-6.1-2.31-6.17-4.37a2.78,2.78,0,0,1,.88-2,32.94,32.94,0,0,1,2.87-2.52,4.57,4.57,0,0,1-2.63-1.89,3.2,3.2,0,0,1-.42-1.5,7.37,7.37,0,0,0,3.22-2.42Zm1.68.35c-3.25,0-5.95-2-5.95-5.29,0-4,3.57-5.84,6.3-5.84a7.15,7.15,0,0,1,3.36.87,23.94,23.94,0,0,0,4.69-.52L71,22a4.44,4.44,0,0,1-1.29,1.86c-.53,0-1.68-.14-2.17-.18a5.46,5.46,0,0,1,1,3.19C68.53,30.7,65.38,32.49,62.37,32.49Zm.81,5.18c-1.72,0-2.49.21-3.12.73a4.05,4.05,0,0,0-1.68,2.87c0,1.93,2,3.36,4.69,3.36,3.33,0,5.22-1.71,5.22-4a2.63,2.63,0,0,0-1.54-2.56A9.54,9.54,0,0,0,63.18,37.67Zm-.81-15.19c-1.58,0-3,1.43-3,4.2s1.39,4.69,3.32,4.69c1.54-.07,2.91-1.37,2.91-4.2S64.33,22.48,62.37,22.48Z"/><path class="cls-2" d="M82.22,37.25v-1c2-.21,2.24-.46,2.24-2.84V27.66c0-2.45-.88-4.1-3.19-4.1a6.1,6.1,0,0,0-3.88,1.82v8.19c0,2.42.21,2.49,2.27,2.7v1H72.1v-1c2.31-.25,2.52-.39,2.52-2.7V26.36c0-2.27-.24-2.38-2.13-2.69v-.91a20.14,20.14,0,0,0,4.9-1.4v2.76c.7-.49,1.47-1,2.38-1.61a5.36,5.36,0,0,1,2.9-1.05c2.8,0,4.56,2.07,4.56,5.46v6.65c0,2.38.21,2.49,2.24,2.7v1Z"/><path class="cls-2" d="M108.3,36.44a40.62,40.62,0,0,0-5.36,1.23V35c-1.89,1.58-3.43,2.7-5.35,2.7-2.35,0-4.38-1.44-4.38-5.25V25.63c0-1.89-.28-2.1-1.15-2.28l-1-.17v-.91a47.6,47.6,0,0,0,5-.63c-.1,1.12-.1,2.8-.1,5.11v4.76c0,3.08,1.61,3.95,3.18,3.95a5.52,5.52,0,0,0,3.78-1.68V25.63c0-1.89-.42-2.14-1.61-2.31l-1.12-.14v-.91a51.14,51.14,0,0,0,5.5-.63V33.36c0,1.75.28,2,1.61,2.07l1,0Z"/><path class="cls-2" d="M109.74,22.62a22.77,22.77,0,0,0,5.07-1.51v2.8c.11-.07,2.91-1.68,3-1.75a5,5,0,0,1,2-.7c3.85,0,6.19,3.22,6.19,6.69,0,5.32-4.2,8.68-8.78,9.52a5.9,5.9,0,0,1-2.49-.63v4.72c0,2.59.28,2.8,3,3.05v1h-8.3v-1c2.28-.25,2.56-.42,2.56-2.77V26.12c0-2.1-.07-2.24-2.31-2.56Zm5.07,12A5.1,5.1,0,0,0,118.14,36c3,0,5-2.55,5-6.47s-2.2-5.92-4.69-5.92a7,7,0,0,0-3.64,1.51Z"/></g></g></svg>